<mxfile host="app.diagrams.net" modified="2024-06-20T09:28:24.515Z" agent="Mozilla/5.0 (Windows NT 10.0; Win64; x64) AppleWebKit/537.36 (KHTML, like Gecko) Chrome/126.0.0.0 Safari/537.36" etag="t0BQukrWYPFHdP-g_fC7" version="24.5.5" type="github">
  <diagram name="第 1 页" id="YA2X6JU4Gg-RtkkG3su3">
    <mxGraphModel dx="7707" dy="2843" grid="1" gridSize="10" guides="1" tooltips="1" connect="1" arrows="1" fold="1" page="1" pageScale="1" pageWidth="850" pageHeight="1100" math="0" shadow="0">
      <root>
        <mxCell id="0" />
        <mxCell id="1" parent="0" />
        <mxCell id="7eBmMcVBxgbyp8dWVUL5-1" style="edgeStyle=orthogonalEdgeStyle;rounded=0;orthogonalLoop=1;jettySize=auto;html=1;entryX=0.5;entryY=0;entryDx=0;entryDy=0;" edge="1" parent="1" source="7eBmMcVBxgbyp8dWVUL5-2" target="7eBmMcVBxgbyp8dWVUL5-3">
          <mxGeometry relative="1" as="geometry" />
        </mxCell>
        <mxCell id="7eBmMcVBxgbyp8dWVUL5-2" value="uvm_test_top" style="rounded=1;whiteSpace=wrap;html=1;" vertex="1" parent="1">
          <mxGeometry x="-1475" y="95" width="90" height="20" as="geometry" />
        </mxCell>
        <mxCell id="7eBmMcVBxgbyp8dWVUL5-3" value="env" style="rounded=1;whiteSpace=wrap;html=1;" vertex="1" parent="1">
          <mxGeometry x="-1445" y="135" width="30" height="20" as="geometry" />
        </mxCell>
        <mxCell id="7eBmMcVBxgbyp8dWVUL5-4" value="rx_i_agt" style="rounded=1;whiteSpace=wrap;html=1;" vertex="1" parent="1">
          <mxGeometry x="-1455" y="195" width="50" height="20" as="geometry" />
        </mxCell>
        <mxCell id="7eBmMcVBxgbyp8dWVUL5-5" value="rx_o_agt" style="rounded=1;whiteSpace=wrap;html=1;" vertex="1" parent="1">
          <mxGeometry x="-1305" y="195" width="50" height="20" as="geometry" />
        </mxCell>
        <mxCell id="7eBmMcVBxgbyp8dWVUL5-6" value="apb_agt" style="rounded=1;whiteSpace=wrap;html=1;" vertex="1" parent="1">
          <mxGeometry x="-1580" y="195" width="50" height="20" as="geometry" />
        </mxCell>
        <mxCell id="7eBmMcVBxgbyp8dWVUL5-7" value="v_sqr" style="rounded=1;whiteSpace=wrap;html=1;" vertex="1" parent="1">
          <mxGeometry x="-1655" y="195" width="50" height="20" as="geometry" />
        </mxCell>
        <mxCell id="7eBmMcVBxgbyp8dWVUL5-8" value="drv" style="rounded=1;whiteSpace=wrap;html=1;" vertex="1" parent="1">
          <mxGeometry x="-1420" y="265" width="50" height="20" as="geometry" />
        </mxCell>
        <mxCell id="7eBmMcVBxgbyp8dWVUL5-9" value="sqr" style="rounded=1;whiteSpace=wrap;html=1;fillColor=#FFFFFF;" vertex="1" parent="1">
          <mxGeometry x="-1485" y="265" width="50" height="20" as="geometry" />
        </mxCell>
        <mxCell id="7eBmMcVBxgbyp8dWVUL5-10" value="scb" style="rounded=1;whiteSpace=wrap;html=1;" vertex="1" parent="1">
          <mxGeometry x="-1380" y="195" width="50" height="20" as="geometry" />
        </mxCell>
        <mxCell id="7eBmMcVBxgbyp8dWVUL5-11" value="rdma_mon" style="rounded=1;whiteSpace=wrap;html=1;" vertex="1" parent="1">
          <mxGeometry x="-1345" y="265" width="60" height="20" as="geometry" />
        </mxCell>
        <mxCell id="7eBmMcVBxgbyp8dWVUL5-12" value="lan_mon" style="rounded=1;whiteSpace=wrap;html=1;" vertex="1" parent="1">
          <mxGeometry x="-1265" y="265" width="50" height="20" as="geometry" />
        </mxCell>
        <mxCell id="7eBmMcVBxgbyp8dWVUL5-13" value="apbSqr" style="rounded=1;whiteSpace=wrap;html=1;fillColor=#FFFFFF;" vertex="1" parent="1">
          <mxGeometry x="-1620" y="265" width="50" height="20" as="geometry" />
        </mxCell>
        <mxCell id="7eBmMcVBxgbyp8dWVUL5-14" value="apbDrv" style="rounded=1;whiteSpace=wrap;html=1;" vertex="1" parent="1">
          <mxGeometry x="-1550" y="265" width="50" height="20" as="geometry" />
        </mxCell>
        <mxCell id="7eBmMcVBxgbyp8dWVUL5-15" value="" style="endArrow=blockThin;html=1;exitX=0.5;exitY=1;exitDx=0;exitDy=0;entryX=0.5;entryY=0;entryDx=0;entryDy=0;endFill=1;" edge="1" parent="1" source="7eBmMcVBxgbyp8dWVUL5-5" target="7eBmMcVBxgbyp8dWVUL5-12">
          <mxGeometry width="50" height="50" relative="1" as="geometry">
            <mxPoint x="-1530" y="230" as="sourcePoint" />
            <mxPoint x="-1480" y="180" as="targetPoint" />
          </mxGeometry>
        </mxCell>
        <mxCell id="7eBmMcVBxgbyp8dWVUL5-16" value="" style="endArrow=blockThin;html=1;exitX=0.5;exitY=1;exitDx=0;exitDy=0;entryX=0.5;entryY=0;entryDx=0;entryDy=0;endFill=1;" edge="1" parent="1" source="7eBmMcVBxgbyp8dWVUL5-5" target="7eBmMcVBxgbyp8dWVUL5-11">
          <mxGeometry width="50" height="50" relative="1" as="geometry">
            <mxPoint x="-1515" y="240" as="sourcePoint" />
            <mxPoint x="-1465" y="190" as="targetPoint" />
          </mxGeometry>
        </mxCell>
        <mxCell id="7eBmMcVBxgbyp8dWVUL5-17" value="" style="endArrow=blockThin;html=1;exitX=0.5;exitY=1;exitDx=0;exitDy=0;entryX=0.5;entryY=0;entryDx=0;entryDy=0;endFill=1;" edge="1" parent="1" source="7eBmMcVBxgbyp8dWVUL5-3" target="7eBmMcVBxgbyp8dWVUL5-10">
          <mxGeometry width="50" height="50" relative="1" as="geometry">
            <mxPoint x="-1410" y="215" as="sourcePoint" />
            <mxPoint x="-1360" y="165" as="targetPoint" />
          </mxGeometry>
        </mxCell>
        <mxCell id="7eBmMcVBxgbyp8dWVUL5-18" value="" style="endArrow=blockThin;html=1;exitX=0.5;exitY=1;exitDx=0;exitDy=0;entryX=0.5;entryY=0;entryDx=0;entryDy=0;endFill=1;" edge="1" parent="1" source="7eBmMcVBxgbyp8dWVUL5-3" target="7eBmMcVBxgbyp8dWVUL5-7">
          <mxGeometry width="50" height="50" relative="1" as="geometry">
            <mxPoint x="-1425" y="160" as="sourcePoint" />
            <mxPoint x="-1770" y="120.00000000000001" as="targetPoint" />
          </mxGeometry>
        </mxCell>
        <mxCell id="7eBmMcVBxgbyp8dWVUL5-19" value="" style="endArrow=blockThin;html=1;exitX=0.5;exitY=1;exitDx=0;exitDy=0;entryX=0.5;entryY=0;entryDx=0;entryDy=0;endFill=1;" edge="1" parent="1" source="7eBmMcVBxgbyp8dWVUL5-3" target="7eBmMcVBxgbyp8dWVUL5-6">
          <mxGeometry width="50" height="50" relative="1" as="geometry">
            <mxPoint x="-1420" y="165" as="sourcePoint" />
            <mxPoint x="-1625" y="160" as="targetPoint" />
          </mxGeometry>
        </mxCell>
        <mxCell id="7eBmMcVBxgbyp8dWVUL5-20" value="" style="endArrow=blockThin;html=1;exitX=0.5;exitY=1;exitDx=0;exitDy=0;entryX=0.5;entryY=0;entryDx=0;entryDy=0;endFill=1;" edge="1" parent="1" source="7eBmMcVBxgbyp8dWVUL5-3" target="7eBmMcVBxgbyp8dWVUL5-4">
          <mxGeometry width="50" height="50" relative="1" as="geometry">
            <mxPoint x="-1415" y="170" as="sourcePoint" />
            <mxPoint x="-1280" y="265" as="targetPoint" />
          </mxGeometry>
        </mxCell>
        <mxCell id="7eBmMcVBxgbyp8dWVUL5-21" value="" style="endArrow=blockThin;html=1;entryX=0.5;entryY=0;entryDx=0;entryDy=0;exitX=0.5;exitY=1;exitDx=0;exitDy=0;endFill=1;" edge="1" parent="1" source="7eBmMcVBxgbyp8dWVUL5-4" target="7eBmMcVBxgbyp8dWVUL5-8">
          <mxGeometry width="50" height="50" relative="1" as="geometry">
            <mxPoint x="-1540" y="220" as="sourcePoint" />
            <mxPoint x="-1490" y="170" as="targetPoint" />
          </mxGeometry>
        </mxCell>
        <mxCell id="7eBmMcVBxgbyp8dWVUL5-22" value="" style="endArrow=blockThin;html=1;exitX=0.5;exitY=1;exitDx=0;exitDy=0;entryX=0.5;entryY=0;entryDx=0;entryDy=0;endFill=1;" edge="1" parent="1" source="7eBmMcVBxgbyp8dWVUL5-4" target="7eBmMcVBxgbyp8dWVUL5-9">
          <mxGeometry width="50" height="50" relative="1" as="geometry">
            <mxPoint x="-1605" y="225" as="sourcePoint" />
            <mxPoint x="-1555" y="175" as="targetPoint" />
          </mxGeometry>
        </mxCell>
        <mxCell id="7eBmMcVBxgbyp8dWVUL5-23" value="" style="endArrow=blockThin;html=1;exitX=0.5;exitY=1;exitDx=0;exitDy=0;entryX=0.5;entryY=0;entryDx=0;entryDy=0;endFill=1;" edge="1" parent="1" source="7eBmMcVBxgbyp8dWVUL5-6" target="7eBmMcVBxgbyp8dWVUL5-13">
          <mxGeometry width="50" height="50" relative="1" as="geometry">
            <mxPoint x="-1665" y="310" as="sourcePoint" />
            <mxPoint x="-1615" y="260" as="targetPoint" />
          </mxGeometry>
        </mxCell>
        <mxCell id="7eBmMcVBxgbyp8dWVUL5-24" value="" style="endArrow=blockThin;html=1;entryX=0.5;entryY=0;entryDx=0;entryDy=0;exitX=0.5;exitY=1;exitDx=0;exitDy=0;endFill=1;" edge="1" parent="1" source="7eBmMcVBxgbyp8dWVUL5-6" target="7eBmMcVBxgbyp8dWVUL5-14">
          <mxGeometry width="50" height="50" relative="1" as="geometry">
            <mxPoint x="-1700" y="205" as="sourcePoint" />
            <mxPoint x="-1655" y="205" as="targetPoint" />
          </mxGeometry>
        </mxCell>
        <mxCell id="7eBmMcVBxgbyp8dWVUL5-25" value="" style="endArrow=blockThin;html=1;exitX=0.5;exitY=1;exitDx=0;exitDy=0;entryX=0.5;entryY=0;entryDx=0;entryDy=0;endFill=1;" edge="1" parent="1" source="7eBmMcVBxgbyp8dWVUL5-3" target="7eBmMcVBxgbyp8dWVUL5-5">
          <mxGeometry width="50" height="50" relative="1" as="geometry">
            <mxPoint x="-1430" y="165" as="sourcePoint" />
            <mxPoint x="-1340" y="280" as="targetPoint" />
          </mxGeometry>
        </mxCell>
        <mxCell id="7eBmMcVBxgbyp8dWVUL5-26" value="D0" style="rounded=0;whiteSpace=wrap;html=1;shadow=0;glass=0;sketch=0;strokeColor=#000000;strokeWidth=1;fillColor=#FFFFFF;fontSize=12;align=center;" vertex="1" parent="1">
          <mxGeometry x="-1055" y="66.13" width="40" height="29" as="geometry" />
        </mxCell>
        <mxCell id="7eBmMcVBxgbyp8dWVUL5-27" value="D1" style="rounded=0;whiteSpace=wrap;html=1;shadow=0;glass=0;sketch=0;strokeColor=#000000;strokeWidth=1;fillColor=#FFFFFF;fontSize=12;align=center;" vertex="1" parent="1">
          <mxGeometry x="-1015" y="66.13" width="40" height="29" as="geometry" />
        </mxCell>
        <mxCell id="7eBmMcVBxgbyp8dWVUL5-28" value="D2" style="rounded=0;whiteSpace=wrap;html=1;shadow=0;glass=0;sketch=0;strokeColor=#000000;strokeWidth=1;fillColor=#FFFFFF;fontSize=12;align=center;" vertex="1" parent="1">
          <mxGeometry x="-975" y="66.13" width="40" height="29" as="geometry" />
        </mxCell>
        <mxCell id="7eBmMcVBxgbyp8dWVUL5-29" value="Dn" style="rounded=0;whiteSpace=wrap;html=1;shadow=0;glass=0;sketch=0;strokeColor=#000000;strokeWidth=1;fillColor=#FFFFFF;fontSize=12;align=center;" vertex="1" parent="1">
          <mxGeometry x="-860" y="66.13" width="40" height="29" as="geometry" />
        </mxCell>
        <mxCell id="7eBmMcVBxgbyp8dWVUL5-30" value="....." style="rounded=0;whiteSpace=wrap;html=1;shadow=0;glass=0;sketch=0;strokeColor=#000000;strokeWidth=1;fillColor=#FFFFFF;fontSize=12;align=center;verticalAlign=top;" vertex="1" parent="1">
          <mxGeometry x="-935" y="66.13" width="75" height="29" as="geometry" />
        </mxCell>
        <mxCell id="7eBmMcVBxgbyp8dWVUL5-31" value="D4" style="rounded=0;whiteSpace=wrap;html=1;shadow=0;glass=0;sketch=0;strokeColor=#000000;strokeWidth=1;fillColor=#FFFFFF;fontSize=12;align=center;" vertex="1" parent="1">
          <mxGeometry x="-917.5" y="210.62" width="40" height="29" as="geometry" />
        </mxCell>
        <mxCell id="7eBmMcVBxgbyp8dWVUL5-32" value="....." style="rounded=0;whiteSpace=wrap;html=1;shadow=0;glass=0;sketch=0;strokeColor=#000000;strokeWidth=1;fillColor=#FFFFFF;fontSize=12;align=center;" vertex="1" parent="1">
          <mxGeometry x="685.89" y="242.62" width="40" height="29" as="geometry" />
        </mxCell>
        <mxCell id="7eBmMcVBxgbyp8dWVUL5-33" value="" style="endArrow=none;html=1;fontSize=12;exitX=0;exitY=0;exitDx=0;exitDy=0;" edge="1" parent="1" source="7eBmMcVBxgbyp8dWVUL5-26">
          <mxGeometry width="50" height="50" relative="1" as="geometry">
            <mxPoint x="-1050" y="75.13" as="sourcePoint" />
            <mxPoint x="-1055" y="40.13000000000011" as="targetPoint" />
          </mxGeometry>
        </mxCell>
        <mxCell id="7eBmMcVBxgbyp8dWVUL5-34" value="" style="endArrow=none;html=1;fontSize=12;exitX=1;exitY=0;exitDx=0;exitDy=0;" edge="1" parent="1" source="7eBmMcVBxgbyp8dWVUL5-26">
          <mxGeometry width="50" height="50" relative="1" as="geometry">
            <mxPoint x="-980" y="40.129999999999995" as="sourcePoint" />
            <mxPoint x="-1015" y="40.13000000000011" as="targetPoint" />
          </mxGeometry>
        </mxCell>
        <mxCell id="7eBmMcVBxgbyp8dWVUL5-35" value="8byte" style="text;html=1;align=center;verticalAlign=middle;resizable=0;points=[];autosize=1;fontSize=12;" vertex="1" parent="1">
          <mxGeometry x="-1055" y="35.129999999999995" width="40" height="20" as="geometry" />
        </mxCell>
        <mxCell id="7eBmMcVBxgbyp8dWVUL5-36" value="" style="shape=curlyBracket;whiteSpace=wrap;html=1;rounded=1;shadow=0;glass=0;sketch=0;strokeColor=#000000;strokeWidth=1;fillColor=#FFFFFF;fontSize=12;align=center;direction=north;" vertex="1" parent="1">
          <mxGeometry x="-1055" y="95.13" width="235" height="30" as="geometry" />
        </mxCell>
        <mxCell id="7eBmMcVBxgbyp8dWVUL5-37" value="&lt;span&gt;64-4096byte&lt;/span&gt;" style="text;html=1;align=center;verticalAlign=middle;resizable=0;points=[];autosize=1;fontSize=12;" vertex="1" parent="1">
          <mxGeometry x="-975" y="120.13" width="80" height="20" as="geometry" />
        </mxCell>
        <mxCell id="7eBmMcVBxgbyp8dWVUL5-38" value="" style="endArrow=none;html=1;fontSize=12;" edge="1" parent="1">
          <mxGeometry width="50" height="50" relative="1" as="geometry">
            <mxPoint x="-860" y="66.13000000000011" as="sourcePoint" />
            <mxPoint x="-875" y="40.13000000000011" as="targetPoint" />
          </mxGeometry>
        </mxCell>
        <mxCell id="7eBmMcVBxgbyp8dWVUL5-39" value="" style="endArrow=none;html=1;fontSize=12;" edge="1" parent="1">
          <mxGeometry width="50" height="50" relative="1" as="geometry">
            <mxPoint x="-820" y="66.13000000000011" as="sourcePoint" />
            <mxPoint x="-805" y="40.13000000000011" as="targetPoint" />
          </mxGeometry>
        </mxCell>
        <mxCell id="7eBmMcVBxgbyp8dWVUL5-40" value="1-8byte" style="text;html=1;align=center;verticalAlign=middle;resizable=0;points=[];autosize=1;fontSize=12;" vertex="1" parent="1">
          <mxGeometry x="-867.5" y="36.389999999999986" width="55" height="20" as="geometry" />
        </mxCell>
        <mxCell id="7eBmMcVBxgbyp8dWVUL5-41" value="D0" style="rounded=0;whiteSpace=wrap;html=1;shadow=0;glass=0;sketch=0;strokeColor=#000000;strokeWidth=1;fillColor=#FFFFFF;fontSize=12;align=center;" vertex="1" parent="1">
          <mxGeometry x="-1072.5" y="210.62" width="40" height="29" as="geometry" />
        </mxCell>
        <mxCell id="7eBmMcVBxgbyp8dWVUL5-42" value="D1" style="rounded=0;whiteSpace=wrap;html=1;shadow=0;glass=0;sketch=0;strokeColor=#000000;strokeWidth=1;fillColor=#FFFFFF;fontSize=12;align=center;" vertex="1" parent="1">
          <mxGeometry x="-1032.5" y="210.62" width="40" height="29" as="geometry" />
        </mxCell>
        <mxCell id="7eBmMcVBxgbyp8dWVUL5-43" value="D2" style="rounded=0;whiteSpace=wrap;html=1;shadow=0;glass=0;sketch=0;strokeColor=#000000;strokeWidth=1;fillColor=#FFFFFF;fontSize=12;align=center;" vertex="1" parent="1">
          <mxGeometry x="-992.5" y="210.62" width="40" height="29" as="geometry" />
        </mxCell>
        <mxCell id="7eBmMcVBxgbyp8dWVUL5-44" value="Dn" style="rounded=0;whiteSpace=wrap;html=1;shadow=0;glass=0;sketch=0;strokeColor=#000000;strokeWidth=1;fillColor=#FFFFFF;fontSize=12;align=center;" vertex="1" parent="1">
          <mxGeometry x="-837.5" y="210.62" width="40" height="29" as="geometry" />
        </mxCell>
        <mxCell id="7eBmMcVBxgbyp8dWVUL5-45" value="....." style="rounded=0;whiteSpace=wrap;html=1;shadow=0;glass=0;sketch=0;strokeColor=#000000;strokeWidth=1;fillColor=#FFFFFF;fontSize=12;align=center;verticalAlign=top;" vertex="1" parent="1">
          <mxGeometry x="-877.5" y="210.62" width="40" height="29" as="geometry" />
        </mxCell>
        <mxCell id="7eBmMcVBxgbyp8dWVUL5-46" value="....." style="rounded=0;whiteSpace=wrap;html=1;shadow=0;glass=0;sketch=0;strokeColor=#000000;strokeWidth=1;fillColor=#FFFFFF;fontSize=12;align=center;verticalAlign=top;" vertex="1" parent="1">
          <mxGeometry x="-952.5" y="210.62" width="35" height="29" as="geometry" />
        </mxCell>
        <mxCell id="7eBmMcVBxgbyp8dWVUL5-47" value="7&amp;lt;=n&amp;lt;=511" style="text;html=1;align=center;verticalAlign=middle;resizable=0;points=[];autosize=1;fontSize=12;" vertex="1" parent="1">
          <mxGeometry x="-812.5" y="70.63" width="75" height="20" as="geometry" />
        </mxCell>
        <mxCell id="7eBmMcVBxgbyp8dWVUL5-48" value="" style="endArrow=none;html=1;fontSize=12;entryX=0.996;entryY=0.994;entryDx=0;entryDy=0;entryPerimeter=0;" edge="1" parent="1" target="7eBmMcVBxgbyp8dWVUL5-51">
          <mxGeometry width="50" height="50" relative="1" as="geometry">
            <mxPoint x="-897.5" y="210.6199999999999" as="sourcePoint" />
            <mxPoint x="-882.5" y="184.62" as="targetPoint" />
          </mxGeometry>
        </mxCell>
        <mxCell id="7eBmMcVBxgbyp8dWVUL5-49" value="" style="endArrow=none;html=1;fontSize=12;entryX=0.503;entryY=1.006;entryDx=0;entryDy=0;entryPerimeter=0;" edge="1" parent="1" target="7eBmMcVBxgbyp8dWVUL5-51">
          <mxGeometry width="50" height="50" relative="1" as="geometry">
            <mxPoint x="-972.5" y="210.6199999999999" as="sourcePoint" />
            <mxPoint x="-947.5" y="181.12" as="targetPoint" />
          </mxGeometry>
        </mxCell>
        <mxCell id="7eBmMcVBxgbyp8dWVUL5-50" value="" style="endArrow=none;html=1;fontSize=12;entryX=-0.004;entryY=0.994;entryDx=0;entryDy=0;entryPerimeter=0;" edge="1" parent="1" target="7eBmMcVBxgbyp8dWVUL5-51">
          <mxGeometry width="50" height="50" relative="1" as="geometry">
            <mxPoint x="-1012.5" y="210.6199999999999" as="sourcePoint" />
            <mxPoint x="-997.5" y="184.62" as="targetPoint" />
          </mxGeometry>
        </mxCell>
        <mxCell id="7eBmMcVBxgbyp8dWVUL5-51" value="ipv4" style="text;html=1;align=center;verticalAlign=middle;resizable=0;points=[];autosize=1;fontSize=12;" vertex="1" parent="1">
          <mxGeometry x="-962.5" y="160.12" width="35" height="20" as="geometry" />
        </mxCell>
        <mxCell id="7eBmMcVBxgbyp8dWVUL5-52" value="D7" style="rounded=0;whiteSpace=wrap;html=1;shadow=0;glass=0;sketch=0;strokeColor=#000000;strokeWidth=1;fillColor=#FFFFFF;fontSize=12;align=center;" vertex="1" parent="1">
          <mxGeometry x="-917.5" y="360.87" width="40" height="29" as="geometry" />
        </mxCell>
        <mxCell id="7eBmMcVBxgbyp8dWVUL5-53" value="D0" style="rounded=0;whiteSpace=wrap;html=1;shadow=0;glass=0;sketch=0;strokeColor=#000000;strokeWidth=1;fillColor=#FFFFFF;fontSize=12;align=center;" vertex="1" parent="1">
          <mxGeometry x="-1072.5" y="360.87" width="40" height="29" as="geometry" />
        </mxCell>
        <mxCell id="7eBmMcVBxgbyp8dWVUL5-54" value="D1" style="rounded=0;whiteSpace=wrap;html=1;shadow=0;glass=0;sketch=0;strokeColor=#000000;strokeWidth=1;fillColor=#FFFFFF;fontSize=12;align=center;" vertex="1" parent="1">
          <mxGeometry x="-1032.5" y="360.87" width="40" height="29" as="geometry" />
        </mxCell>
        <mxCell id="7eBmMcVBxgbyp8dWVUL5-55" value="D2" style="rounded=0;whiteSpace=wrap;html=1;shadow=0;glass=0;sketch=0;strokeColor=#000000;strokeWidth=1;fillColor=#FFFFFF;fontSize=12;align=center;" vertex="1" parent="1">
          <mxGeometry x="-992.5" y="360.87" width="40" height="29" as="geometry" />
        </mxCell>
        <mxCell id="7eBmMcVBxgbyp8dWVUL5-56" value="Dn" style="rounded=0;whiteSpace=wrap;html=1;shadow=0;glass=0;sketch=0;strokeColor=#000000;strokeWidth=1;fillColor=#FFFFFF;fontSize=12;align=center;" vertex="1" parent="1">
          <mxGeometry x="-837.5" y="360.87" width="40" height="29" as="geometry" />
        </mxCell>
        <mxCell id="7eBmMcVBxgbyp8dWVUL5-57" value="....." style="rounded=0;whiteSpace=wrap;html=1;shadow=0;glass=0;sketch=0;strokeColor=#000000;strokeWidth=1;fillColor=#FFFFFF;fontSize=12;align=center;verticalAlign=top;" vertex="1" parent="1">
          <mxGeometry x="-877.5" y="360.87" width="40" height="29" as="geometry" />
        </mxCell>
        <mxCell id="7eBmMcVBxgbyp8dWVUL5-58" value="....." style="rounded=0;whiteSpace=wrap;html=1;shadow=0;glass=0;sketch=0;strokeColor=#000000;strokeWidth=1;fillColor=#FFFFFF;fontSize=12;align=center;verticalAlign=top;" vertex="1" parent="1">
          <mxGeometry x="-952.5" y="360.87" width="35" height="29" as="geometry" />
        </mxCell>
        <mxCell id="7eBmMcVBxgbyp8dWVUL5-59" value="" style="endArrow=none;html=1;fontSize=12;entryX=0.996;entryY=0.994;entryDx=0;entryDy=0;entryPerimeter=0;" edge="1" parent="1" target="7eBmMcVBxgbyp8dWVUL5-62">
          <mxGeometry width="50" height="50" relative="1" as="geometry">
            <mxPoint x="-897.5" y="360.8699999999999" as="sourcePoint" />
            <mxPoint x="-882.5" y="334.87" as="targetPoint" />
          </mxGeometry>
        </mxCell>
        <mxCell id="7eBmMcVBxgbyp8dWVUL5-60" value="" style="endArrow=none;html=1;fontSize=12;entryX=0.503;entryY=1.006;entryDx=0;entryDy=0;entryPerimeter=0;" edge="1" parent="1" target="7eBmMcVBxgbyp8dWVUL5-62">
          <mxGeometry width="50" height="50" relative="1" as="geometry">
            <mxPoint x="-972.5" y="360.8699999999999" as="sourcePoint" />
            <mxPoint x="-947.5" y="331.37" as="targetPoint" />
          </mxGeometry>
        </mxCell>
        <mxCell id="7eBmMcVBxgbyp8dWVUL5-61" value="" style="endArrow=none;html=1;fontSize=12;entryX=-0.004;entryY=0.994;entryDx=0;entryDy=0;entryPerimeter=0;" edge="1" parent="1" target="7eBmMcVBxgbyp8dWVUL5-62">
          <mxGeometry width="50" height="50" relative="1" as="geometry">
            <mxPoint x="-1012.5" y="360.8699999999999" as="sourcePoint" />
            <mxPoint x="-997.5" y="334.87" as="targetPoint" />
          </mxGeometry>
        </mxCell>
        <mxCell id="7eBmMcVBxgbyp8dWVUL5-62" value="ipv6" style="text;html=1;align=center;verticalAlign=middle;resizable=0;points=[];autosize=1;fontSize=12;" vertex="1" parent="1">
          <mxGeometry x="-962.5" y="310.37" width="35" height="20" as="geometry" />
        </mxCell>
        <mxCell id="7eBmMcVBxgbyp8dWVUL5-63" value="D0" style="rounded=0;whiteSpace=wrap;html=1;shadow=0;glass=0;sketch=0;strokeColor=#000000;strokeWidth=1;fillColor=#FFFFFF;fontSize=12;align=center;" vertex="1" parent="1">
          <mxGeometry x="-620" y="49.25" width="40" height="29" as="geometry" />
        </mxCell>
        <mxCell id="7eBmMcVBxgbyp8dWVUL5-64" value="D1" style="rounded=0;whiteSpace=wrap;html=1;shadow=0;glass=0;sketch=0;strokeColor=#000000;strokeWidth=1;fillColor=#FFFFFF;fontSize=12;align=center;" vertex="1" parent="1">
          <mxGeometry x="-580" y="49.25" width="40" height="29" as="geometry" />
        </mxCell>
        <mxCell id="7eBmMcVBxgbyp8dWVUL5-65" value="D2" style="rounded=0;whiteSpace=wrap;html=1;shadow=0;glass=0;sketch=0;strokeColor=#000000;strokeWidth=1;fillColor=#FFFFFF;fontSize=12;align=center;" vertex="1" parent="1">
          <mxGeometry x="-540" y="49.25" width="40" height="29" as="geometry" />
        </mxCell>
        <mxCell id="7eBmMcVBxgbyp8dWVUL5-66" value="Dn" style="rounded=0;whiteSpace=wrap;html=1;shadow=0;glass=0;sketch=0;strokeColor=#000000;strokeWidth=1;fillColor=#FFFFFF;fontSize=12;align=center;" vertex="1" parent="1">
          <mxGeometry x="-425" y="49.25" width="40" height="29" as="geometry" />
        </mxCell>
        <mxCell id="7eBmMcVBxgbyp8dWVUL5-67" value="" style="endArrow=none;html=1;fontSize=12;entryX=0;entryY=1;entryDx=0;entryDy=0;" edge="1" parent="1" target="7eBmMcVBxgbyp8dWVUL5-63">
          <mxGeometry width="50" height="50" relative="1" as="geometry">
            <mxPoint x="-620" y="117.5" as="sourcePoint" />
            <mxPoint x="-545" y="23.25" as="targetPoint" />
          </mxGeometry>
        </mxCell>
        <mxCell id="7eBmMcVBxgbyp8dWVUL5-68" value="" style="endArrow=none;html=1;fontSize=12;entryX=0;entryY=1;entryDx=0;entryDy=0;" edge="1" parent="1">
          <mxGeometry width="50" height="50" relative="1" as="geometry">
            <mxPoint x="-424.72000000000025" y="117.5" as="sourcePoint" />
            <mxPoint x="-425" y="78.25" as="targetPoint" />
          </mxGeometry>
        </mxCell>
        <mxCell id="7eBmMcVBxgbyp8dWVUL5-69" value="" style="endArrow=classic;startArrow=classic;html=1;fontSize=12;" edge="1" parent="1">
          <mxGeometry width="50" height="50" relative="1" as="geometry">
            <mxPoint x="-620" y="102.5" as="sourcePoint" />
            <mxPoint x="-425" y="102.5" as="targetPoint" />
          </mxGeometry>
        </mxCell>
        <mxCell id="7eBmMcVBxgbyp8dWVUL5-70" value="main_pkg" style="edgeLabel;html=1;align=center;verticalAlign=middle;resizable=0;points=[];fontSize=12;" vertex="1" connectable="0" parent="7eBmMcVBxgbyp8dWVUL5-69">
          <mxGeometry x="-0.0798" relative="1" as="geometry">
            <mxPoint as="offset" />
          </mxGeometry>
        </mxCell>
        <mxCell id="7eBmMcVBxgbyp8dWVUL5-71" value="" style="endArrow=blockThin;startArrow=blockThin;html=1;fontSize=12;endFill=1;startFill=1;" edge="1" parent="1">
          <mxGeometry width="50" height="50" relative="1" as="geometry">
            <mxPoint x="-452.5" y="27.75" as="sourcePoint" />
            <mxPoint x="-357.5" y="27.75" as="targetPoint" />
          </mxGeometry>
        </mxCell>
        <mxCell id="7eBmMcVBxgbyp8dWVUL5-72" value="remainder" style="edgeLabel;html=1;align=center;verticalAlign=middle;resizable=0;points=[];fontSize=12;" vertex="1" connectable="0" parent="7eBmMcVBxgbyp8dWVUL5-71">
          <mxGeometry x="-0.0798" relative="1" as="geometry">
            <mxPoint as="offset" />
          </mxGeometry>
        </mxCell>
        <mxCell id="7eBmMcVBxgbyp8dWVUL5-73" value="....." style="rounded=0;whiteSpace=wrap;html=1;shadow=0;glass=0;sketch=0;strokeColor=#000000;strokeWidth=1;fillColor=#FFFFFF;fontSize=12;align=center;verticalAlign=top;" vertex="1" parent="1">
          <mxGeometry x="-500" y="49.25" width="75" height="29" as="geometry" />
        </mxCell>
        <mxCell id="7eBmMcVBxgbyp8dWVUL5-74" value="" style="endArrow=none;html=1;fontSize=12;" edge="1" parent="1">
          <mxGeometry width="50" height="50" relative="1" as="geometry">
            <mxPoint x="-425" y="49.25" as="sourcePoint" />
            <mxPoint x="-460" y="23.5" as="targetPoint" />
          </mxGeometry>
        </mxCell>
        <mxCell id="7eBmMcVBxgbyp8dWVUL5-75" value="" style="endArrow=none;html=1;fontSize=12;" edge="1" parent="1">
          <mxGeometry width="50" height="50" relative="1" as="geometry">
            <mxPoint x="-385" y="49.25" as="sourcePoint" />
            <mxPoint x="-350" y="23.5" as="targetPoint" />
          </mxGeometry>
        </mxCell>
        <mxCell id="7eBmMcVBxgbyp8dWVUL5-76" value="" style="shape=curlyBracket;whiteSpace=wrap;html=1;rounded=1;shadow=0;glass=0;sketch=0;strokeColor=#000000;strokeWidth=1;fillColor=#FFFFFF;fontSize=12;align=center;direction=east;" vertex="1" parent="1">
          <mxGeometry x="-620" y="122.5" width="30" height="92.5" as="geometry" />
        </mxCell>
        <mxCell id="7eBmMcVBxgbyp8dWVUL5-77" value="rdma_ipv4_pkg_tdata" style="text;html=1;align=center;verticalAlign=middle;resizable=0;points=[];autosize=1;fontSize=12;" vertex="1" parent="1">
          <mxGeometry x="-602" y="127.5" width="130" height="20" as="geometry" />
        </mxCell>
        <mxCell id="7eBmMcVBxgbyp8dWVUL5-78" value="rdma_ipv6_pkg_tdata" style="text;html=1;align=center;verticalAlign=middle;resizable=0;points=[];autosize=1;fontSize=12;" vertex="1" parent="1">
          <mxGeometry x="-602" y="157.5" width="130" height="20" as="geometry" />
        </mxCell>
        <mxCell id="7eBmMcVBxgbyp8dWVUL5-79" value="none_rdma_pkg_tdata" style="text;html=1;align=center;verticalAlign=middle;resizable=0;points=[];autosize=1;fontSize=12;" vertex="1" parent="1">
          <mxGeometry x="-604" y="187.5" width="135" height="20" as="geometry" />
        </mxCell>
        <mxCell id="7eBmMcVBxgbyp8dWVUL5-80" value="D4" style="rounded=0;whiteSpace=wrap;html=1;shadow=0;glass=0;sketch=0;strokeColor=#000000;strokeWidth=1;fillColor=#FFFFFF;fontSize=12;align=center;" vertex="1" parent="1">
          <mxGeometry x="-490" y="310.5" width="40" height="29" as="geometry" />
        </mxCell>
        <mxCell id="7eBmMcVBxgbyp8dWVUL5-81" value="D0" style="rounded=0;whiteSpace=wrap;html=1;shadow=0;glass=0;sketch=0;strokeColor=#000000;strokeWidth=1;fillColor=#FFFFFF;fontSize=12;align=center;" vertex="1" parent="1">
          <mxGeometry x="-645" y="310.5" width="40" height="29" as="geometry" />
        </mxCell>
        <mxCell id="7eBmMcVBxgbyp8dWVUL5-82" value="D1" style="rounded=0;whiteSpace=wrap;html=1;shadow=0;glass=0;sketch=0;strokeColor=#000000;strokeWidth=1;fillColor=#FFFFFF;fontSize=12;align=center;" vertex="1" parent="1">
          <mxGeometry x="-605" y="310.5" width="40" height="29" as="geometry" />
        </mxCell>
        <mxCell id="7eBmMcVBxgbyp8dWVUL5-83" value="D2" style="rounded=0;whiteSpace=wrap;html=1;shadow=0;glass=0;sketch=0;strokeColor=#000000;strokeWidth=1;fillColor=#FFFFFF;fontSize=12;align=center;" vertex="1" parent="1">
          <mxGeometry x="-565" y="310.5" width="40" height="29" as="geometry" />
        </mxCell>
        <mxCell id="7eBmMcVBxgbyp8dWVUL5-84" value="Dn" style="rounded=0;whiteSpace=wrap;html=1;shadow=0;glass=0;sketch=0;strokeColor=#000000;strokeWidth=1;fillColor=#FFFFFF;fontSize=12;align=center;" vertex="1" parent="1">
          <mxGeometry x="-410" y="310.5" width="40" height="29" as="geometry" />
        </mxCell>
        <mxCell id="7eBmMcVBxgbyp8dWVUL5-85" value="....." style="rounded=0;whiteSpace=wrap;html=1;shadow=0;glass=0;sketch=0;strokeColor=#000000;strokeWidth=1;fillColor=#FFFFFF;fontSize=12;align=center;verticalAlign=top;" vertex="1" parent="1">
          <mxGeometry x="-450" y="310.5" width="40" height="29" as="geometry" />
        </mxCell>
        <mxCell id="7eBmMcVBxgbyp8dWVUL5-86" value="....." style="rounded=0;whiteSpace=wrap;html=1;shadow=0;glass=0;sketch=0;strokeColor=#000000;strokeWidth=1;fillColor=#FFFFFF;fontSize=12;align=center;verticalAlign=top;" vertex="1" parent="1">
          <mxGeometry x="-525" y="310.5" width="35" height="29" as="geometry" />
        </mxCell>
        <mxCell id="7eBmMcVBxgbyp8dWVUL5-87" value="" style="endArrow=none;html=1;fontSize=12;entryX=0.996;entryY=0.994;entryDx=0;entryDy=0;entryPerimeter=0;" edge="1" parent="1" target="7eBmMcVBxgbyp8dWVUL5-90">
          <mxGeometry width="50" height="50" relative="1" as="geometry">
            <mxPoint x="-470" y="310.5" as="sourcePoint" />
            <mxPoint x="-455" y="284.5" as="targetPoint" />
          </mxGeometry>
        </mxCell>
        <mxCell id="7eBmMcVBxgbyp8dWVUL5-88" value="" style="endArrow=none;html=1;fontSize=12;entryX=0.503;entryY=1.006;entryDx=0;entryDy=0;entryPerimeter=0;" edge="1" parent="1" target="7eBmMcVBxgbyp8dWVUL5-90">
          <mxGeometry width="50" height="50" relative="1" as="geometry">
            <mxPoint x="-545" y="310.5" as="sourcePoint" />
            <mxPoint x="-520" y="281" as="targetPoint" />
          </mxGeometry>
        </mxCell>
        <mxCell id="7eBmMcVBxgbyp8dWVUL5-89" value="" style="endArrow=none;html=1;fontSize=12;entryX=-0.004;entryY=0.994;entryDx=0;entryDy=0;entryPerimeter=0;" edge="1" parent="1" target="7eBmMcVBxgbyp8dWVUL5-90">
          <mxGeometry width="50" height="50" relative="1" as="geometry">
            <mxPoint x="-585" y="310.5" as="sourcePoint" />
            <mxPoint x="-570" y="284.5" as="targetPoint" />
          </mxGeometry>
        </mxCell>
        <mxCell id="7eBmMcVBxgbyp8dWVUL5-90" value="ipv4" style="text;html=1;align=center;verticalAlign=middle;resizable=0;points=[];autosize=1;fontSize=12;" vertex="1" parent="1">
          <mxGeometry x="-535" y="260" width="35" height="20" as="geometry" />
        </mxCell>
        <mxCell id="7eBmMcVBxgbyp8dWVUL5-91" value="" style="endArrow=blockThin;startArrow=blockThin;html=1;fontSize=12;endFill=1;startFill=1;" edge="1" parent="1">
          <mxGeometry width="50" height="50" relative="1" as="geometry">
            <mxPoint x="-437.5" y="289" as="sourcePoint" />
            <mxPoint x="-342.5" y="289" as="targetPoint" />
          </mxGeometry>
        </mxCell>
        <mxCell id="7eBmMcVBxgbyp8dWVUL5-92" value="remainder" style="edgeLabel;html=1;align=center;verticalAlign=middle;resizable=0;points=[];fontSize=12;" vertex="1" connectable="0" parent="7eBmMcVBxgbyp8dWVUL5-91">
          <mxGeometry x="-0.0798" relative="1" as="geometry">
            <mxPoint as="offset" />
          </mxGeometry>
        </mxCell>
        <mxCell id="7eBmMcVBxgbyp8dWVUL5-93" value="" style="endArrow=none;html=1;fontSize=12;" edge="1" parent="1">
          <mxGeometry width="50" height="50" relative="1" as="geometry">
            <mxPoint x="-410" y="310.5" as="sourcePoint" />
            <mxPoint x="-445" y="284.75" as="targetPoint" />
          </mxGeometry>
        </mxCell>
        <mxCell id="7eBmMcVBxgbyp8dWVUL5-94" value="" style="endArrow=none;html=1;fontSize=12;" edge="1" parent="1">
          <mxGeometry width="50" height="50" relative="1" as="geometry">
            <mxPoint x="-370" y="310.5" as="sourcePoint" />
            <mxPoint x="-335" y="284.75" as="targetPoint" />
          </mxGeometry>
        </mxCell>
        <mxCell id="7eBmMcVBxgbyp8dWVUL5-95" value="" style="endArrow=none;html=1;fontSize=12;entryX=0;entryY=1;entryDx=0;entryDy=0;" edge="1" parent="1">
          <mxGeometry width="50" height="50" relative="1" as="geometry">
            <mxPoint x="-645" y="377.75" as="sourcePoint" />
            <mxPoint x="-645" y="338.5" as="targetPoint" />
          </mxGeometry>
        </mxCell>
        <mxCell id="7eBmMcVBxgbyp8dWVUL5-96" value="" style="endArrow=none;html=1;fontSize=12;entryX=0;entryY=1;entryDx=0;entryDy=0;" edge="1" parent="1">
          <mxGeometry width="50" height="50" relative="1" as="geometry">
            <mxPoint x="-410.1199999999999" y="379.0100000000002" as="sourcePoint" />
            <mxPoint x="-410.39999999999964" y="339.7600000000002" as="targetPoint" />
          </mxGeometry>
        </mxCell>
        <mxCell id="7eBmMcVBxgbyp8dWVUL5-97" value="" style="endArrow=classic;startArrow=classic;html=1;fontSize=12;" edge="1" parent="1">
          <mxGeometry width="50" height="50" relative="1" as="geometry">
            <mxPoint x="-645" y="362.75" as="sourcePoint" />
            <mxPoint x="-410" y="363" as="targetPoint" />
          </mxGeometry>
        </mxCell>
        <mxCell id="7eBmMcVBxgbyp8dWVUL5-98" value="main_pkg" style="edgeLabel;html=1;align=center;verticalAlign=middle;resizable=0;points=[];fontSize=12;" vertex="1" connectable="0" parent="7eBmMcVBxgbyp8dWVUL5-97">
          <mxGeometry x="-0.0798" relative="1" as="geometry">
            <mxPoint as="offset" />
          </mxGeometry>
        </mxCell>
        <mxCell id="7eBmMcVBxgbyp8dWVUL5-99" value="" style="shape=curlyBracket;whiteSpace=wrap;html=1;rounded=1;shadow=0;glass=0;sketch=0;strokeColor=#000000;strokeWidth=1;fillColor=#FFFFFF;fontSize=12;align=center;direction=east;" vertex="1" parent="1">
          <mxGeometry x="-645" y="382.75" width="30" height="92.5" as="geometry" />
        </mxCell>
        <mxCell id="7eBmMcVBxgbyp8dWVUL5-100" value="" style="edgeStyle=none;rounded=1;orthogonalLoop=1;jettySize=auto;html=1;startArrow=blockThin;startFill=1;endArrow=blockThin;endFill=1;fontSize=12;" edge="1" parent="1" source="7eBmMcVBxgbyp8dWVUL5-102">
          <mxGeometry relative="1" as="geometry">
            <mxPoint x="-417" y="397.75" as="targetPoint" />
          </mxGeometry>
        </mxCell>
        <mxCell id="7eBmMcVBxgbyp8dWVUL5-101" value="Pack_byte" style="edgeLabel;html=1;align=center;verticalAlign=middle;resizable=0;points=[];fontSize=12;" vertex="1" connectable="0" parent="7eBmMcVBxgbyp8dWVUL5-100">
          <mxGeometry x="-0.04" relative="1" as="geometry">
            <mxPoint as="offset" />
          </mxGeometry>
        </mxCell>
        <mxCell id="7eBmMcVBxgbyp8dWVUL5-102" value="rdma_ipv4_pkg_tdata" style="text;html=1;align=center;verticalAlign=middle;resizable=0;points=[];autosize=1;fontSize=12;" vertex="1" parent="1">
          <mxGeometry x="-627" y="387.75" width="130" height="20" as="geometry" />
        </mxCell>
        <mxCell id="7eBmMcVBxgbyp8dWVUL5-103" value="" style="edgeStyle=none;rounded=1;orthogonalLoop=1;jettySize=auto;html=1;startArrow=blockThin;startFill=1;endArrow=blockThin;endFill=1;fontSize=12;" edge="1" parent="1" source="7eBmMcVBxgbyp8dWVUL5-104" target="7eBmMcVBxgbyp8dWVUL5-105">
          <mxGeometry relative="1" as="geometry" />
        </mxCell>
        <mxCell id="7eBmMcVBxgbyp8dWVUL5-104" value="rdma_ipv6_pkg_tdata" style="text;html=1;align=center;verticalAlign=middle;resizable=0;points=[];autosize=1;fontSize=12;" vertex="1" parent="1">
          <mxGeometry x="-627" y="417.75" width="130" height="20" as="geometry" />
        </mxCell>
        <mxCell id="7eBmMcVBxgbyp8dWVUL5-105" value="NOPACK&amp;amp;NOCOMPARE" style="text;html=1;align=center;verticalAlign=middle;resizable=0;points=[];autosize=1;fontSize=12;" vertex="1" parent="1">
          <mxGeometry x="-415" y="417.75" width="150" height="20" as="geometry" />
        </mxCell>
        <mxCell id="7eBmMcVBxgbyp8dWVUL5-106" value="" style="edgeStyle=none;rounded=1;orthogonalLoop=1;jettySize=auto;html=1;startArrow=blockThin;startFill=1;endArrow=blockThin;endFill=1;fontSize=12;entryX=0;entryY=0.513;entryDx=0;entryDy=0;entryPerimeter=0;" edge="1" parent="1" source="7eBmMcVBxgbyp8dWVUL5-107" target="7eBmMcVBxgbyp8dWVUL5-108">
          <mxGeometry relative="1" as="geometry">
            <mxPoint x="-430" y="458" as="targetPoint" />
          </mxGeometry>
        </mxCell>
        <mxCell id="7eBmMcVBxgbyp8dWVUL5-107" value="none_rdma_pkg_tdata" style="text;html=1;align=center;verticalAlign=middle;resizable=0;points=[];autosize=1;fontSize=12;" vertex="1" parent="1">
          <mxGeometry x="-629" y="447.75" width="135" height="20" as="geometry" />
        </mxCell>
        <mxCell id="7eBmMcVBxgbyp8dWVUL5-108" value="NOPACK&amp;amp;NOCOMPARE" style="text;html=1;align=center;verticalAlign=middle;resizable=0;points=[];autosize=1;fontSize=12;" vertex="1" parent="1">
          <mxGeometry x="-415" y="447.75" width="150" height="20" as="geometry" />
        </mxCell>
        <mxCell id="7eBmMcVBxgbyp8dWVUL5-109" value="D4" style="rounded=0;whiteSpace=wrap;html=1;shadow=0;glass=0;sketch=0;strokeColor=#000000;strokeWidth=1;fillColor=#FFFFFF;fontSize=12;align=center;" vertex="1" parent="1">
          <mxGeometry x="-255" y="383.25" width="40" height="29" as="geometry" />
        </mxCell>
        <mxCell id="7eBmMcVBxgbyp8dWVUL5-110" value="D0" style="rounded=0;whiteSpace=wrap;html=1;shadow=0;glass=0;sketch=0;strokeColor=#000000;strokeWidth=1;fillColor=#FFFFFF;fontSize=12;align=center;" vertex="1" parent="1">
          <mxGeometry x="-410" y="383.25" width="40" height="29" as="geometry" />
        </mxCell>
        <mxCell id="7eBmMcVBxgbyp8dWVUL5-111" value="D1" style="rounded=0;whiteSpace=wrap;html=1;shadow=0;glass=0;sketch=0;strokeColor=#000000;strokeWidth=1;fillColor=#FFFFFF;fontSize=12;align=center;" vertex="1" parent="1">
          <mxGeometry x="-370" y="383.25" width="40" height="29" as="geometry" />
        </mxCell>
        <mxCell id="7eBmMcVBxgbyp8dWVUL5-112" value="D2" style="rounded=0;whiteSpace=wrap;html=1;shadow=0;glass=0;sketch=0;strokeColor=#000000;strokeWidth=1;fillColor=#FFFFFF;fontSize=12;align=center;" vertex="1" parent="1">
          <mxGeometry x="-330" y="383.25" width="40" height="29" as="geometry" />
        </mxCell>
        <mxCell id="7eBmMcVBxgbyp8dWVUL5-113" value="Dn-1" style="rounded=0;whiteSpace=wrap;html=1;shadow=0;glass=0;sketch=0;strokeColor=#000000;strokeWidth=1;fillColor=#FFFFFF;fontSize=12;align=center;" vertex="1" parent="1">
          <mxGeometry x="-175" y="383.25" width="40" height="29" as="geometry" />
        </mxCell>
        <mxCell id="7eBmMcVBxgbyp8dWVUL5-114" value="....." style="rounded=0;whiteSpace=wrap;html=1;shadow=0;glass=0;sketch=0;strokeColor=#000000;strokeWidth=1;fillColor=#FFFFFF;fontSize=12;align=center;verticalAlign=top;" vertex="1" parent="1">
          <mxGeometry x="-215" y="383.25" width="40" height="29" as="geometry" />
        </mxCell>
        <mxCell id="7eBmMcVBxgbyp8dWVUL5-115" value="....." style="rounded=0;whiteSpace=wrap;html=1;shadow=0;glass=0;sketch=0;strokeColor=#000000;strokeWidth=1;fillColor=#FFFFFF;fontSize=12;align=center;verticalAlign=top;" vertex="1" parent="1">
          <mxGeometry x="-290" y="383.25" width="35" height="29" as="geometry" />
        </mxCell>
        <mxCell id="7eBmMcVBxgbyp8dWVUL5-116" value="temp_tdata_q[ ]" style="text;html=1;align=center;verticalAlign=middle;resizable=0;points=[];autosize=1;fontSize=12;" vertex="1" parent="1">
          <mxGeometry x="60" y="61.129999999999995" width="95" height="20" as="geometry" />
        </mxCell>
        <mxCell id="7eBmMcVBxgbyp8dWVUL5-117" value="0" style="rounded=0;whiteSpace=wrap;html=1;shadow=0;glass=0;sketch=0;strokeColor=#000000;strokeWidth=1;fillColor=#FFFFFF;fontSize=12;align=center;" vertex="1" parent="1">
          <mxGeometry x="156" y="61.129999999999995" width="20" height="20" as="geometry" />
        </mxCell>
        <mxCell id="7eBmMcVBxgbyp8dWVUL5-118" value="1" style="rounded=0;whiteSpace=wrap;html=1;shadow=0;glass=0;sketch=0;strokeColor=#000000;strokeWidth=1;fillColor=#FFFFFF;fontSize=12;align=center;" vertex="1" parent="1">
          <mxGeometry x="176" y="61.129999999999995" width="20" height="20" as="geometry" />
        </mxCell>
        <mxCell id="7eBmMcVBxgbyp8dWVUL5-119" value="....." style="rounded=0;whiteSpace=wrap;html=1;shadow=0;glass=0;sketch=0;strokeColor=#000000;strokeWidth=1;fillColor=#FFFFFF;fontSize=12;align=center;verticalAlign=middle;labelPosition=center;verticalLabelPosition=middle;" vertex="1" parent="1">
          <mxGeometry x="196" y="61.129999999999995" width="50" height="20" as="geometry" />
        </mxCell>
        <mxCell id="7eBmMcVBxgbyp8dWVUL5-120" value="7" style="rounded=0;whiteSpace=wrap;html=1;shadow=0;glass=0;sketch=0;strokeColor=#000000;strokeWidth=1;fillColor=#FFFFFF;fontSize=12;align=center;" vertex="1" parent="1">
          <mxGeometry x="246" y="61.129999999999995" width="20" height="20" as="geometry" />
        </mxCell>
        <mxCell id="7eBmMcVBxgbyp8dWVUL5-121" value="8" style="rounded=0;whiteSpace=wrap;html=1;shadow=0;glass=0;sketch=0;strokeColor=#000000;strokeWidth=1;fillColor=#FFFFFF;fontSize=12;align=center;" vertex="1" parent="1">
          <mxGeometry x="266" y="61.129999999999995" width="20" height="20" as="geometry" />
        </mxCell>
        <mxCell id="7eBmMcVBxgbyp8dWVUL5-122" value="....." style="rounded=0;whiteSpace=wrap;html=1;shadow=0;glass=0;sketch=0;strokeColor=#000000;strokeWidth=1;fillColor=#FFFFFF;fontSize=12;align=center;verticalAlign=middle;labelPosition=center;verticalLabelPosition=middle;" vertex="1" parent="1">
          <mxGeometry x="286" y="61.129999999999995" width="50" height="20" as="geometry" />
        </mxCell>
        <mxCell id="7eBmMcVBxgbyp8dWVUL5-123" value="" style="endArrow=none;html=1;fontSize=12;" edge="1" parent="1">
          <mxGeometry width="50" height="50" relative="1" as="geometry">
            <mxPoint x="481" y="126.13000000000011" as="sourcePoint" />
            <mxPoint x="111" y="126.13000000000011" as="targetPoint" />
          </mxGeometry>
        </mxCell>
        <mxCell id="7eBmMcVBxgbyp8dWVUL5-124" value="" style="endArrow=none;html=1;fontSize=12;entryX=0;entryY=1;entryDx=0;entryDy=0;" edge="1" parent="1">
          <mxGeometry width="50" height="50" relative="1" as="geometry">
            <mxPoint x="266" y="101.13000000000011" as="sourcePoint" />
            <mxPoint x="266" y="81.51000000000022" as="targetPoint" />
          </mxGeometry>
        </mxCell>
        <mxCell id="7eBmMcVBxgbyp8dWVUL5-125" value="" style="endArrow=none;html=1;fontSize=12;entryX=0;entryY=1;entryDx=0;entryDy=0;" edge="1" parent="1">
          <mxGeometry width="50" height="50" relative="1" as="geometry">
            <mxPoint x="156" y="101.13000000000011" as="sourcePoint" />
            <mxPoint x="156" y="80.88000000000011" as="targetPoint" />
          </mxGeometry>
        </mxCell>
        <mxCell id="7eBmMcVBxgbyp8dWVUL5-126" value="" style="endArrow=classic;startArrow=classic;html=1;fontSize=12;" edge="1" parent="1">
          <mxGeometry width="50" height="50" relative="1" as="geometry">
            <mxPoint x="156" y="96.13000000000011" as="sourcePoint" />
            <mxPoint x="266" y="96.13000000000011" as="targetPoint" />
          </mxGeometry>
        </mxCell>
        <mxCell id="7eBmMcVBxgbyp8dWVUL5-127" value="D0" style="edgeLabel;html=1;align=center;verticalAlign=middle;resizable=0;points=[];fontSize=12;" vertex="1" connectable="0" parent="7eBmMcVBxgbyp8dWVUL5-126">
          <mxGeometry x="-0.0798" relative="1" as="geometry">
            <mxPoint as="offset" />
          </mxGeometry>
        </mxCell>
        <mxCell id="7eBmMcVBxgbyp8dWVUL5-128" value="8n-1" style="rounded=0;whiteSpace=wrap;html=1;shadow=0;glass=0;sketch=0;strokeColor=#000000;strokeWidth=1;fillColor=#FFFFFF;fontSize=12;align=center;" vertex="1" parent="1">
          <mxGeometry x="336" y="61.129999999999995" width="30" height="20" as="geometry" />
        </mxCell>
        <mxCell id="7eBmMcVBxgbyp8dWVUL5-129" value="8n" style="rounded=0;whiteSpace=wrap;html=1;shadow=0;glass=0;sketch=0;strokeColor=#000000;strokeWidth=1;fillColor=#FFFFFF;fontSize=12;align=center;" vertex="1" parent="1">
          <mxGeometry x="366" y="61.129999999999995" width="20" height="20" as="geometry" />
        </mxCell>
        <mxCell id="7eBmMcVBxgbyp8dWVUL5-130" value="....." style="rounded=0;whiteSpace=wrap;html=1;shadow=0;glass=0;sketch=0;strokeColor=#000000;strokeWidth=1;fillColor=#FFFFFF;fontSize=12;align=center;verticalAlign=middle;labelPosition=center;verticalLabelPosition=middle;" vertex="1" parent="1">
          <mxGeometry x="386" y="61.129999999999995" width="50" height="20" as="geometry" />
        </mxCell>
        <mxCell id="7eBmMcVBxgbyp8dWVUL5-131" value="" style="endArrow=none;html=1;fontSize=12;entryX=0;entryY=1;entryDx=0;entryDy=0;" edge="1" parent="1">
          <mxGeometry width="50" height="50" relative="1" as="geometry">
            <mxPoint x="366" y="100.75" as="sourcePoint" />
            <mxPoint x="366" y="81.13000000000011" as="targetPoint" />
          </mxGeometry>
        </mxCell>
        <mxCell id="7eBmMcVBxgbyp8dWVUL5-132" value="D1" style="text;html=1;align=center;verticalAlign=middle;resizable=0;points=[];autosize=1;fontSize=12;" vertex="1" parent="1">
          <mxGeometry x="266" y="85.13" width="30" height="20" as="geometry" />
        </mxCell>
        <mxCell id="7eBmMcVBxgbyp8dWVUL5-133" value="...." style="text;html=1;align=center;verticalAlign=middle;resizable=0;points=[];autosize=1;fontSize=12;" vertex="1" parent="1">
          <mxGeometry x="299" y="86.13" width="25" height="20" as="geometry" />
        </mxCell>
        <mxCell id="7eBmMcVBxgbyp8dWVUL5-134" value="Dn-1" style="text;html=1;align=center;verticalAlign=middle;resizable=0;points=[];autosize=1;fontSize=12;" vertex="1" parent="1">
          <mxGeometry x="331" y="85.13" width="40" height="20" as="geometry" />
        </mxCell>
        <mxCell id="7eBmMcVBxgbyp8dWVUL5-135" value="" style="endArrow=classic;startArrow=classic;html=1;fontSize=12;" edge="1" parent="1">
          <mxGeometry width="50" height="50" relative="1" as="geometry">
            <mxPoint x="366" y="96.13000000000011" as="sourcePoint" />
            <mxPoint x="436" y="96.13000000000011" as="targetPoint" />
          </mxGeometry>
        </mxCell>
        <mxCell id="7eBmMcVBxgbyp8dWVUL5-136" value="Dn" style="edgeLabel;html=1;align=center;verticalAlign=middle;resizable=0;points=[];fontSize=12;" vertex="1" connectable="0" parent="7eBmMcVBxgbyp8dWVUL5-135">
          <mxGeometry x="-0.0798" relative="1" as="geometry">
            <mxPoint as="offset" />
          </mxGeometry>
        </mxCell>
        <mxCell id="7eBmMcVBxgbyp8dWVUL5-137" value="" style="endArrow=none;html=1;fontSize=12;entryX=0;entryY=1;entryDx=0;entryDy=0;" edge="1" parent="1">
          <mxGeometry width="50" height="50" relative="1" as="geometry">
            <mxPoint x="436" y="100.75" as="sourcePoint" />
            <mxPoint x="436" y="81.13000000000011" as="targetPoint" />
          </mxGeometry>
        </mxCell>
        <mxCell id="7eBmMcVBxgbyp8dWVUL5-138" value="&lt;font style=&quot;font-size: 20px&quot;&gt;DUT&lt;/font&gt;" style="rounded=0;whiteSpace=wrap;html=1;shadow=0;glass=0;sketch=0;verticalAlign=middle;align=center;dashed=1;fontColor=#ffffff;fillColor=#e0a4a2;dashPattern=1 4;" vertex="1" parent="1">
          <mxGeometry x="481" y="105.13" width="125" height="40" as="geometry" />
        </mxCell>
        <mxCell id="7eBmMcVBxgbyp8dWVUL5-139" value="" style="endArrow=block;html=1;fontSize=12;shape=flexArrow;startArrow=none;startFill=0;endFill=0;endSize=2.4232558139534883;startSize=6;rounded=1;endWidth=3.37479718766901;width=3.7209302325581395;" edge="1" parent="1">
          <mxGeometry width="50" height="50" relative="1" as="geometry">
            <mxPoint x="206" y="101.13000000000011" as="sourcePoint" />
            <mxPoint x="206.07999999999993" y="126.13000000000011" as="targetPoint" />
          </mxGeometry>
        </mxCell>
        <mxCell id="7eBmMcVBxgbyp8dWVUL5-140" value="" style="endArrow=block;html=1;fontSize=12;shape=flexArrow;startArrow=none;startFill=0;endFill=0;endSize=2.4232558139534883;startSize=6;rounded=1;endWidth=3.37479718766901;width=3.7209302325581395;" edge="1" parent="1">
          <mxGeometry width="50" height="50" relative="1" as="geometry">
            <mxPoint x="280.8299999999999" y="100.13000000000011" as="sourcePoint" />
            <mxPoint x="280.90999999999985" y="125.13000000000011" as="targetPoint" />
          </mxGeometry>
        </mxCell>
        <mxCell id="7eBmMcVBxgbyp8dWVUL5-141" value="" style="endArrow=block;html=1;fontSize=12;shape=flexArrow;startArrow=none;startFill=0;endFill=0;endSize=2.4232558139534883;startSize=6;rounded=1;endWidth=3.37479718766901;width=3.7209302325581395;" edge="1" parent="1">
          <mxGeometry width="50" height="50" relative="1" as="geometry">
            <mxPoint x="356" y="100.13000000000011" as="sourcePoint" />
            <mxPoint x="356.0799999999999" y="125.13000000000011" as="targetPoint" />
          </mxGeometry>
        </mxCell>
        <mxCell id="7eBmMcVBxgbyp8dWVUL5-142" value="" style="endArrow=block;html=1;fontSize=12;shape=flexArrow;startArrow=none;startFill=0;endFill=0;endSize=2.4232558139534883;startSize=6;rounded=1;endWidth=3.37479718766901;width=3.7209302325581395;" edge="1" parent="1">
          <mxGeometry width="50" height="50" relative="1" as="geometry">
            <mxPoint x="401" y="100.13000000000011" as="sourcePoint" />
            <mxPoint x="401.0799999999999" y="125.13000000000011" as="targetPoint" />
          </mxGeometry>
        </mxCell>
        <mxCell id="7eBmMcVBxgbyp8dWVUL5-143" value="@clk" style="text;html=1;align=center;verticalAlign=middle;resizable=0;points=[];autosize=1;fontSize=12;" vertex="1" parent="1">
          <mxGeometry x="191" y="125.13" width="40" height="20" as="geometry" />
        </mxCell>
        <mxCell id="7eBmMcVBxgbyp8dWVUL5-144" value="@clk" style="text;html=1;align=center;verticalAlign=middle;resizable=0;points=[];autosize=1;fontSize=12;" vertex="1" parent="1">
          <mxGeometry x="261" y="125.13" width="40" height="20" as="geometry" />
        </mxCell>
        <mxCell id="7eBmMcVBxgbyp8dWVUL5-145" value="@clk" style="text;html=1;align=center;verticalAlign=middle;resizable=0;points=[];autosize=1;fontSize=12;" vertex="1" parent="1">
          <mxGeometry x="336" y="125.13" width="40" height="20" as="geometry" />
        </mxCell>
        <mxCell id="7eBmMcVBxgbyp8dWVUL5-146" value="@clk" style="text;html=1;align=center;verticalAlign=middle;resizable=0;points=[];autosize=1;fontSize=12;" vertex="1" parent="1">
          <mxGeometry x="386" y="125.13" width="40" height="20" as="geometry" />
        </mxCell>
        <mxCell id="7eBmMcVBxgbyp8dWVUL5-147" value="" style="endArrow=none;html=1;fontSize=12;" edge="1" parent="1">
          <mxGeometry width="50" height="50" relative="1" as="geometry">
            <mxPoint x="366" y="61.13000000000011" as="sourcePoint" />
            <mxPoint x="366" y="35.13000000000011" as="targetPoint" />
          </mxGeometry>
        </mxCell>
        <mxCell id="7eBmMcVBxgbyp8dWVUL5-148" value="" style="endArrow=none;html=1;fontSize=12;" edge="1" parent="1">
          <mxGeometry width="50" height="50" relative="1" as="geometry">
            <mxPoint x="436" y="61.13000000000011" as="sourcePoint" />
            <mxPoint x="436" y="35.13000000000011" as="targetPoint" />
          </mxGeometry>
        </mxCell>
        <mxCell id="7eBmMcVBxgbyp8dWVUL5-149" value="1-8byte" style="text;html=1;align=center;verticalAlign=middle;resizable=0;points=[];autosize=1;fontSize=12;" vertex="1" parent="1">
          <mxGeometry x="371" y="36.129999999999995" width="55" height="20" as="geometry" />
        </mxCell>
        <mxCell id="7eBmMcVBxgbyp8dWVUL5-150" value="" style="endArrow=classic;html=1;fontSize=12;" edge="1" parent="1">
          <mxGeometry width="50" height="50" relative="1" as="geometry">
            <mxPoint x="147" y="143.1300000000001" as="sourcePoint" />
            <mxPoint x="452" y="143.1300000000001" as="targetPoint" />
          </mxGeometry>
        </mxCell>
        <mxCell id="7eBmMcVBxgbyp8dWVUL5-151" value="" style="group;" vertex="1" connectable="0" parent="1">
          <mxGeometry x="-1655" y="520" width="1090" height="534.5" as="geometry" />
        </mxCell>
        <mxCell id="7eBmMcVBxgbyp8dWVUL5-152" value="casen_vseq" style="rounded=1;whiteSpace=wrap;html=1;shadow=0;glass=0;sketch=0;strokeColor=#000000;fontSize=20;align=center;verticalAlign=top;dashed=1;dashPattern=1 4;strokeWidth=1;perimeterSpacing=0;" vertex="1" parent="7eBmMcVBxgbyp8dWVUL5-151">
          <mxGeometry x="85" width="470" height="100" as="geometry" />
        </mxCell>
        <mxCell id="7eBmMcVBxgbyp8dWVUL5-153" value="&lt;font style=&quot;font-size: 20px&quot;&gt;Top&lt;/font&gt;" style="rounded=0;whiteSpace=wrap;html=1;strokeColor=#23445d;fillColor=#bac8d3;shadow=0;glass=0;sketch=0;verticalAlign=top;" vertex="1" parent="7eBmMcVBxgbyp8dWVUL5-151">
          <mxGeometry y="130" width="1090" height="404.5" as="geometry" />
        </mxCell>
        <mxCell id="7eBmMcVBxgbyp8dWVUL5-154" value="&lt;font style=&quot;font-size: 20px&quot;&gt;casen&lt;/font&gt;" style="rounded=0;whiteSpace=wrap;html=1;strokeColor=#6c8ebf;fillColor=#dae8fc;shadow=0;glass=0;sketch=0;verticalAlign=top;" vertex="1" parent="7eBmMcVBxgbyp8dWVUL5-151">
          <mxGeometry x="40" y="170" width="1020" height="274.5" as="geometry" />
        </mxCell>
        <mxCell id="7eBmMcVBxgbyp8dWVUL5-155" value="&lt;font style=&quot;font-size: 20px&quot;&gt;env&lt;/font&gt;" style="rounded=0;whiteSpace=wrap;html=1;strokeColor=#9673a6;fillColor=#e1d5e7;shadow=0;glass=0;sketch=0;verticalAlign=top;" vertex="1" parent="7eBmMcVBxgbyp8dWVUL5-151">
          <mxGeometry x="80" y="210" width="960" height="219.5" as="geometry" />
        </mxCell>
        <mxCell id="7eBmMcVBxgbyp8dWVUL5-156" value="&lt;font style=&quot;font-size: 20px&quot;&gt;rx_o_agt&lt;/font&gt;" style="rounded=0;whiteSpace=wrap;html=1;fillColor=#b1ddf0;align=center;verticalAlign=top;horizontal=1;labelPosition=center;verticalLabelPosition=middle;" vertex="1" parent="7eBmMcVBxgbyp8dWVUL5-151">
          <mxGeometry x="717.5" y="329" width="300" height="91" as="geometry" />
        </mxCell>
        <mxCell id="7eBmMcVBxgbyp8dWVUL5-157" value="&lt;font style=&quot;font-size: 20px&quot;&gt;rx_i_agt&lt;/font&gt;" style="rounded=0;whiteSpace=wrap;html=1;align=center;verticalAlign=top;horizontal=1;labelPosition=center;verticalLabelPosition=middle;fillColor=#b1ddf0;" vertex="1" parent="7eBmMcVBxgbyp8dWVUL5-151">
          <mxGeometry x="465" y="260" width="110" height="160" as="geometry" />
        </mxCell>
        <mxCell id="7eBmMcVBxgbyp8dWVUL5-158" value="&lt;font style=&quot;font-size: 20px&quot;&gt;DUT&lt;/font&gt;" style="rounded=0;whiteSpace=wrap;html=1;shadow=0;glass=0;sketch=0;verticalAlign=middle;align=center;dashed=1;fontColor=#ffffff;fillColor=#e0a4a2;dashPattern=1 4;" vertex="1" parent="7eBmMcVBxgbyp8dWVUL5-151">
          <mxGeometry x="592.5" y="470" width="125" height="40" as="geometry" />
        </mxCell>
        <mxCell id="7eBmMcVBxgbyp8dWVUL5-159" value="" style="endArrow=none;html=1;entryX=0;entryY=0.5;entryDx=0;entryDy=0;" edge="1" parent="7eBmMcVBxgbyp8dWVUL5-151" target="7eBmMcVBxgbyp8dWVUL5-158">
          <mxGeometry width="50" height="50" relative="1" as="geometry">
            <mxPoint x="365" y="490" as="sourcePoint" />
            <mxPoint x="545" y="490" as="targetPoint" />
            <Array as="points">
              <mxPoint x="165" y="490" />
            </Array>
          </mxGeometry>
        </mxCell>
        <mxCell id="7eBmMcVBxgbyp8dWVUL5-160" value="" style="endArrow=none;html=1;exitX=1;exitY=0.5;exitDx=0;exitDy=0;" edge="1" parent="7eBmMcVBxgbyp8dWVUL5-151" source="7eBmMcVBxgbyp8dWVUL5-158">
          <mxGeometry width="50" height="50" relative="1" as="geometry">
            <mxPoint x="730" y="489.76" as="sourcePoint" />
            <mxPoint x="980" y="490" as="targetPoint" />
          </mxGeometry>
        </mxCell>
        <mxCell id="7eBmMcVBxgbyp8dWVUL5-161" value="drv_port" style="text;html=1;align=center;verticalAlign=middle;resizable=0;points=[];autosize=1;fontSize=12;" vertex="1" parent="7eBmMcVBxgbyp8dWVUL5-151">
          <mxGeometry x="522.5" y="385" width="55" height="20" as="geometry" />
        </mxCell>
        <mxCell id="7eBmMcVBxgbyp8dWVUL5-162" value="" style="group" vertex="1" connectable="0" parent="7eBmMcVBxgbyp8dWVUL5-151">
          <mxGeometry x="150" y="315" width="75" height="155" as="geometry" />
        </mxCell>
        <mxCell id="7eBmMcVBxgbyp8dWVUL5-163" value="&lt;font style=&quot;font-size: 20px&quot;&gt;apb_agt&lt;/font&gt;" style="rounded=0;whiteSpace=wrap;html=1;fillColor=#b1ddf0;align=center;verticalAlign=top;horizontal=1;labelPosition=center;verticalLabelPosition=middle;" vertex="1" parent="7eBmMcVBxgbyp8dWVUL5-162">
          <mxGeometry x="-5" y="-55" width="80" height="160" as="geometry" />
        </mxCell>
        <mxCell id="7eBmMcVBxgbyp8dWVUL5-164" value="apbDrv" style="rounded=0;whiteSpace=wrap;html=1;strokeColor=#000000;fillColor=#FFFFFF;fontSize=20;" vertex="1" parent="7eBmMcVBxgbyp8dWVUL5-162">
          <mxGeometry y="56" width="70" height="30" as="geometry" />
        </mxCell>
        <mxCell id="7eBmMcVBxgbyp8dWVUL5-165" value="" style="endArrow=blockThin;html=1;exitX=0.5;exitY=1;exitDx=0;exitDy=0;endFill=1;" edge="1" parent="7eBmMcVBxgbyp8dWVUL5-162" source="7eBmMcVBxgbyp8dWVUL5-164">
          <mxGeometry width="50" height="50" relative="1" as="geometry">
            <mxPoint x="132.5" y="40" as="sourcePoint" />
            <mxPoint x="36" y="175" as="targetPoint" />
          </mxGeometry>
        </mxCell>
        <mxCell id="7eBmMcVBxgbyp8dWVUL5-166" value="apbInf" style="edgeLabel;html=1;align=center;verticalAlign=middle;resizable=0;points=[];fontSize=12;" vertex="1" connectable="0" parent="7eBmMcVBxgbyp8dWVUL5-165">
          <mxGeometry x="0.3481" y="-1" relative="1" as="geometry">
            <mxPoint x="0.33" y="-6.01" as="offset" />
          </mxGeometry>
        </mxCell>
        <mxCell id="7eBmMcVBxgbyp8dWVUL5-167" value="" style="rounded=0;whiteSpace=wrap;html=1;shadow=0;glass=0;sketch=0;strokeColor=#000000;align=center;" vertex="1" parent="7eBmMcVBxgbyp8dWVUL5-162">
          <mxGeometry x="32.5" y="51" width="5" height="5" as="geometry" />
        </mxCell>
        <mxCell id="7eBmMcVBxgbyp8dWVUL5-168" value="" style="ellipse;whiteSpace=wrap;html=1;aspect=fixed;rounded=0;shadow=0;glass=0;sketch=0;strokeColor=#000000;align=center;" vertex="1" parent="7eBmMcVBxgbyp8dWVUL5-162">
          <mxGeometry x="33" y="15" width="4" height="4" as="geometry" />
        </mxCell>
        <mxCell id="7eBmMcVBxgbyp8dWVUL5-169" value="" style="endArrow=blockThin;html=1;endFill=1;entryX=0.5;entryY=0;entryDx=0;entryDy=0;exitX=0.5;exitY=1;exitDx=0;exitDy=0;" edge="1" parent="7eBmMcVBxgbyp8dWVUL5-162" source="7eBmMcVBxgbyp8dWVUL5-168" target="7eBmMcVBxgbyp8dWVUL5-167">
          <mxGeometry width="50" height="50" relative="1" as="geometry">
            <mxPoint x="35" y="20" as="sourcePoint" />
            <mxPoint x="35" y="45" as="targetPoint" />
          </mxGeometry>
        </mxCell>
        <mxCell id="7eBmMcVBxgbyp8dWVUL5-170" value="apbSqr" style="rounded=0;whiteSpace=wrap;html=1;strokeColor=#36393d;fillColor=#ffff88;fontSize=20;" vertex="1" parent="7eBmMcVBxgbyp8dWVUL5-162">
          <mxGeometry y="-15" width="70" height="30" as="geometry" />
        </mxCell>
        <mxCell id="7eBmMcVBxgbyp8dWVUL5-171" value="&lt;font style=&quot;font-size: 12px;&quot;&gt;drv_imp&lt;/font&gt;" style="text;html=1;align=center;verticalAlign=middle;resizable=0;points=[];autosize=1;fontSize=12;" vertex="1" parent="7eBmMcVBxgbyp8dWVUL5-151">
          <mxGeometry x="600" y="255" width="55" height="20" as="geometry" />
        </mxCell>
        <mxCell id="7eBmMcVBxgbyp8dWVUL5-172" value="&lt;font style=&quot;font-size: 12px;&quot;&gt;rmon_imp&lt;/font&gt;" style="text;html=1;align=center;verticalAlign=middle;resizable=0;points=[];autosize=1;fontSize=12;sketch=0;" vertex="1" parent="7eBmMcVBxgbyp8dWVUL5-151">
          <mxGeometry x="679.5" y="285" width="65" height="20" as="geometry" />
        </mxCell>
        <mxCell id="7eBmMcVBxgbyp8dWVUL5-173" value="&lt;font style=&quot;font-size: 12px;&quot;&gt;lmon_imp&lt;/font&gt;" style="text;html=1;align=center;verticalAlign=middle;resizable=0;points=[];autosize=1;fontSize=12;" vertex="1" parent="7eBmMcVBxgbyp8dWVUL5-151">
          <mxGeometry x="705" y="257" width="65" height="20" as="geometry" />
        </mxCell>
        <mxCell id="7eBmMcVBxgbyp8dWVUL5-174" value="" style="ellipse;whiteSpace=wrap;html=1;aspect=fixed;rounded=0;shadow=0;glass=0;sketch=0;strokeColor=#000000;align=center;" vertex="1" parent="7eBmMcVBxgbyp8dWVUL5-151">
          <mxGeometry x="710" y="273" width="4" height="4" as="geometry" />
        </mxCell>
        <mxCell id="7eBmMcVBxgbyp8dWVUL5-175" value="" style="rounded=0;whiteSpace=wrap;html=1;shadow=0;glass=0;sketch=0;strokeColor=#000000;align=center;" vertex="1" parent="7eBmMcVBxgbyp8dWVUL5-151">
          <mxGeometry x="948" y="365" width="5" height="5" as="geometry" />
        </mxCell>
        <mxCell id="7eBmMcVBxgbyp8dWVUL5-176" value="" style="endArrow=blockThin;html=1;entryX=0.5;entryY=1;entryDx=0;entryDy=0;endFill=1;" edge="1" parent="7eBmMcVBxgbyp8dWVUL5-151">
          <mxGeometry width="50" height="50" relative="1" as="geometry">
            <mxPoint x="950" y="490" as="sourcePoint" />
            <mxPoint x="950.25" y="400" as="targetPoint" />
          </mxGeometry>
        </mxCell>
        <mxCell id="7eBmMcVBxgbyp8dWVUL5-177" value="lan_mon_if" style="edgeLabel;html=1;align=center;verticalAlign=middle;resizable=0;points=[];fontSize=12;" vertex="1" connectable="0" parent="7eBmMcVBxgbyp8dWVUL5-176">
          <mxGeometry x="-0.3747" relative="1" as="geometry">
            <mxPoint x="0.42" y="-1.76" as="offset" />
          </mxGeometry>
        </mxCell>
        <mxCell id="7eBmMcVBxgbyp8dWVUL5-178" value="" style="endArrow=blockThin;html=1;entryX=0.5;entryY=1;entryDx=0;entryDy=0;endFill=1;" edge="1" parent="7eBmMcVBxgbyp8dWVUL5-151" target="7eBmMcVBxgbyp8dWVUL5-188">
          <mxGeometry width="50" height="50" relative="1" as="geometry">
            <mxPoint x="838" y="490" as="sourcePoint" />
            <mxPoint x="915" y="385" as="targetPoint" />
          </mxGeometry>
        </mxCell>
        <mxCell id="7eBmMcVBxgbyp8dWVUL5-179" value="rdma_mon_if" style="edgeLabel;html=1;align=center;verticalAlign=middle;resizable=0;points=[];fontSize=12;" vertex="1" connectable="0" parent="7eBmMcVBxgbyp8dWVUL5-178">
          <mxGeometry x="-0.3183" relative="1" as="geometry">
            <mxPoint as="offset" />
          </mxGeometry>
        </mxCell>
        <mxCell id="7eBmMcVBxgbyp8dWVUL5-180" value="" style="rounded=0;whiteSpace=wrap;html=1;shadow=0;glass=0;sketch=0;strokeColor=#000000;align=center;" vertex="1" parent="7eBmMcVBxgbyp8dWVUL5-151">
          <mxGeometry x="780" y="383.5" width="5" height="5" as="geometry" />
        </mxCell>
        <mxCell id="7eBmMcVBxgbyp8dWVUL5-181" value="scb" style="rounded=0;whiteSpace=wrap;html=1;shadow=0;glass=0;sketch=0;fillColor=#60a917;fontSize=20;fontColor=#ffffff;" vertex="1" parent="7eBmMcVBxgbyp8dWVUL5-151">
          <mxGeometry x="654" y="260" width="56" height="30" as="geometry" />
        </mxCell>
        <mxCell id="7eBmMcVBxgbyp8dWVUL5-182" value="" style="ellipse;whiteSpace=wrap;html=1;aspect=fixed;rounded=0;shadow=0;glass=0;sketch=0;strokeColor=#000000;align=center;" vertex="1" parent="7eBmMcVBxgbyp8dWVUL5-151">
          <mxGeometry x="650" y="273" width="4" height="4" as="geometry" />
        </mxCell>
        <mxCell id="7eBmMcVBxgbyp8dWVUL5-183" value="" style="ellipse;whiteSpace=wrap;html=1;aspect=fixed;rounded=0;shadow=0;glass=0;sketch=0;strokeColor=#000000;align=center;" vertex="1" parent="7eBmMcVBxgbyp8dWVUL5-151">
          <mxGeometry x="680" y="290" width="4" height="4" as="geometry" />
        </mxCell>
        <mxCell id="7eBmMcVBxgbyp8dWVUL5-184" value="" style="edgeStyle=none;orthogonalLoop=1;jettySize=auto;html=1;endArrow=blockThin;endFill=1;entryX=0.5;entryY=1;entryDx=0;entryDy=0;rounded=0;" edge="1" parent="7eBmMcVBxgbyp8dWVUL5-151" source="7eBmMcVBxgbyp8dWVUL5-180" target="7eBmMcVBxgbyp8dWVUL5-183">
          <mxGeometry relative="1" as="geometry">
            <mxPoint x="698" y="315" as="targetPoint" />
            <Array as="points">
              <mxPoint x="682" y="386" />
            </Array>
          </mxGeometry>
        </mxCell>
        <mxCell id="7eBmMcVBxgbyp8dWVUL5-185" style="edgeStyle=none;orthogonalLoop=1;jettySize=auto;html=1;endArrow=blockThin;endFill=1;rounded=0;entryX=1;entryY=0.5;entryDx=0;entryDy=0;" edge="1" parent="7eBmMcVBxgbyp8dWVUL5-151" source="7eBmMcVBxgbyp8dWVUL5-175" target="7eBmMcVBxgbyp8dWVUL5-174">
          <mxGeometry relative="1" as="geometry">
            <mxPoint x="700" y="277" as="targetPoint" />
            <Array as="points">
              <mxPoint x="951" y="275" />
            </Array>
          </mxGeometry>
        </mxCell>
        <mxCell id="7eBmMcVBxgbyp8dWVUL5-186" value="lmon_port" style="text;html=1;align=center;verticalAlign=middle;resizable=0;points=[];autosize=1;fontSize=12;" vertex="1" parent="7eBmMcVBxgbyp8dWVUL5-151">
          <mxGeometry x="948" y="352" width="65" height="20" as="geometry" />
        </mxCell>
        <mxCell id="7eBmMcVBxgbyp8dWVUL5-187" value="lan_mon" style="rounded=0;whiteSpace=wrap;html=1;shadow=0;glass=0;sketch=0;strokeColor=#000000;fontSize=20;" vertex="1" parent="7eBmMcVBxgbyp8dWVUL5-151">
          <mxGeometry x="908" y="370" width="85" height="30" as="geometry" />
        </mxCell>
        <mxCell id="7eBmMcVBxgbyp8dWVUL5-188" value="rdma_mon" style="rounded=0;whiteSpace=wrap;html=1;shadow=0;glass=0;sketch=0;strokeColor=#000000;fontSize=20;" vertex="1" parent="7eBmMcVBxgbyp8dWVUL5-151">
          <mxGeometry x="785" y="370" width="105" height="30" as="geometry" />
        </mxCell>
        <mxCell id="7eBmMcVBxgbyp8dWVUL5-189" value="rmon_port" style="text;html=1;align=center;verticalAlign=middle;resizable=0;points=[];autosize=1;fontSize=12;" vertex="1" parent="7eBmMcVBxgbyp8dWVUL5-151">
          <mxGeometry x="717.5" y="382.5" width="70" height="20" as="geometry" />
        </mxCell>
        <mxCell id="7eBmMcVBxgbyp8dWVUL5-190" value="" style="endArrow=blockThin;html=1;exitX=0.5;exitY=1;exitDx=0;exitDy=0;endFill=1;" edge="1" parent="7eBmMcVBxgbyp8dWVUL5-151" source="7eBmMcVBxgbyp8dWVUL5-193">
          <mxGeometry width="50" height="50" relative="1" as="geometry">
            <mxPoint x="420" y="440" as="sourcePoint" />
            <mxPoint x="505" y="490" as="targetPoint" />
          </mxGeometry>
        </mxCell>
        <mxCell id="7eBmMcVBxgbyp8dWVUL5-191" value="rx_drv_if" style="edgeLabel;html=1;align=center;verticalAlign=middle;resizable=0;points=[];fontSize=12;" vertex="1" connectable="0" parent="7eBmMcVBxgbyp8dWVUL5-190">
          <mxGeometry x="0.2757" relative="1" as="geometry">
            <mxPoint as="offset" />
          </mxGeometry>
        </mxCell>
        <mxCell id="7eBmMcVBxgbyp8dWVUL5-192" value="" style="group" vertex="1" connectable="0" parent="7eBmMcVBxgbyp8dWVUL5-151">
          <mxGeometry x="485" y="370" width="45" height="30" as="geometry" />
        </mxCell>
        <mxCell id="7eBmMcVBxgbyp8dWVUL5-193" value="drv" style="rounded=0;whiteSpace=wrap;html=1;strokeColor=#000000;fillColor=#FFFFFF;fontSize=20;" vertex="1" parent="7eBmMcVBxgbyp8dWVUL5-192">
          <mxGeometry width="40" height="30" as="geometry" />
        </mxCell>
        <mxCell id="7eBmMcVBxgbyp8dWVUL5-194" value="" style="rounded=0;whiteSpace=wrap;html=1;shadow=0;glass=0;sketch=0;strokeColor=#000000;align=center;" vertex="1" parent="7eBmMcVBxgbyp8dWVUL5-192">
          <mxGeometry x="40" y="13.5" width="5" height="5" as="geometry" />
        </mxCell>
        <mxCell id="7eBmMcVBxgbyp8dWVUL5-195" value="" style="edgeStyle=none;orthogonalLoop=1;jettySize=auto;html=1;endArrow=blockThin;endFill=1;entryX=0;entryY=0.5;entryDx=0;entryDy=0;rounded=0;" edge="1" parent="7eBmMcVBxgbyp8dWVUL5-151" source="7eBmMcVBxgbyp8dWVUL5-194" target="7eBmMcVBxgbyp8dWVUL5-182">
          <mxGeometry relative="1" as="geometry">
            <mxPoint x="635" y="290" as="targetPoint" />
            <Array as="points">
              <mxPoint x="600" y="386" />
              <mxPoint x="600" y="275" />
            </Array>
          </mxGeometry>
        </mxCell>
        <mxCell id="7eBmMcVBxgbyp8dWVUL5-196" value="" style="rounded=0;whiteSpace=wrap;html=1;shadow=0;glass=0;sketch=0;strokeColor=#000000;align=center;" vertex="1" parent="7eBmMcVBxgbyp8dWVUL5-151">
          <mxGeometry x="502.5" y="364.5" width="5" height="5" as="geometry" />
        </mxCell>
        <mxCell id="7eBmMcVBxgbyp8dWVUL5-197" value="" style="group" vertex="1" connectable="0" parent="7eBmMcVBxgbyp8dWVUL5-151">
          <mxGeometry x="485" y="300" width="40" height="34" as="geometry" />
        </mxCell>
        <mxCell id="7eBmMcVBxgbyp8dWVUL5-198" value="sqr" style="rounded=0;whiteSpace=wrap;html=1;strokeColor=#36393d;fillColor=#ffff88;fontSize=20;" vertex="1" parent="7eBmMcVBxgbyp8dWVUL5-197">
          <mxGeometry width="40" height="30" as="geometry" />
        </mxCell>
        <mxCell id="7eBmMcVBxgbyp8dWVUL5-199" value="" style="ellipse;whiteSpace=wrap;html=1;aspect=fixed;rounded=0;shadow=0;glass=0;sketch=0;strokeColor=#000000;align=center;" vertex="1" parent="7eBmMcVBxgbyp8dWVUL5-197">
          <mxGeometry x="18" y="30" width="4" height="4" as="geometry" />
        </mxCell>
        <mxCell id="7eBmMcVBxgbyp8dWVUL5-200" value="" style="endArrow=blockThin;html=1;endFill=1;entryX=0.5;entryY=0;entryDx=0;entryDy=0;exitX=0.5;exitY=1;exitDx=0;exitDy=0;" edge="1" parent="7eBmMcVBxgbyp8dWVUL5-151" source="7eBmMcVBxgbyp8dWVUL5-199" target="7eBmMcVBxgbyp8dWVUL5-196">
          <mxGeometry width="50" height="50" relative="1" as="geometry">
            <mxPoint x="505" y="320" as="sourcePoint" />
            <mxPoint x="505" y="355" as="targetPoint" />
          </mxGeometry>
        </mxCell>
        <mxCell id="7eBmMcVBxgbyp8dWVUL5-201" value="&lt;font style=&quot;font-size: 20px&quot;&gt;v_sqr&lt;/font&gt;" style="rounded=0;whiteSpace=wrap;html=1;align=center;verticalAlign=top;horizontal=1;labelPosition=center;verticalLabelPosition=middle;fillColor=#b1ddf0;" vertex="1" parent="7eBmMcVBxgbyp8dWVUL5-151">
          <mxGeometry x="245" y="260" width="200" height="100" as="geometry" />
        </mxCell>
        <mxCell id="7eBmMcVBxgbyp8dWVUL5-202" value="rx_sqr" style="rounded=0;whiteSpace=wrap;html=1;fontSize=20;" vertex="1" parent="7eBmMcVBxgbyp8dWVUL5-151">
          <mxGeometry x="362.5" y="300" width="72.5" height="30" as="geometry" />
        </mxCell>
        <mxCell id="7eBmMcVBxgbyp8dWVUL5-203" value="apb_sqr" style="rounded=0;whiteSpace=wrap;html=1;fontSize=20;" vertex="1" parent="7eBmMcVBxgbyp8dWVUL5-151">
          <mxGeometry x="265" y="300" width="80" height="30.5" as="geometry" />
        </mxCell>
        <mxCell id="7eBmMcVBxgbyp8dWVUL5-204" value="" style="endArrow=classic;startArrow=none;html=1;startFill=0;dashed=1;exitX=1;exitY=0.5;exitDx=0;exitDy=0;" edge="1" parent="7eBmMcVBxgbyp8dWVUL5-151" source="7eBmMcVBxgbyp8dWVUL5-202" target="7eBmMcVBxgbyp8dWVUL5-198">
          <mxGeometry width="50" height="50" relative="1" as="geometry">
            <mxPoint x="-227.5" y="699.5" as="sourcePoint" />
            <mxPoint x="420" y="60" as="targetPoint" />
          </mxGeometry>
        </mxCell>
        <mxCell id="7eBmMcVBxgbyp8dWVUL5-205" value="" style="endArrow=classic;startArrow=none;html=1;startFill=0;dashed=1;entryX=1;entryY=0.5;entryDx=0;entryDy=0;" edge="1" parent="7eBmMcVBxgbyp8dWVUL5-151" target="7eBmMcVBxgbyp8dWVUL5-170">
          <mxGeometry width="50" height="50" relative="1" as="geometry">
            <mxPoint x="265" y="315" as="sourcePoint" />
            <mxPoint x="70" y="5" as="targetPoint" />
          </mxGeometry>
        </mxCell>
        <mxCell id="7eBmMcVBxgbyp8dWVUL5-206" value="" style="group" vertex="1" connectable="0" parent="7eBmMcVBxgbyp8dWVUL5-151">
          <mxGeometry x="335" y="45" width="205" height="40.75000000000003" as="geometry" />
        </mxCell>
        <mxCell id="7eBmMcVBxgbyp8dWVUL5-207" value="casen_seq" style="rounded=1;whiteSpace=wrap;html=1;shadow=0;glass=0;sketch=0;strokeColor=#000000;fontSize=20;align=center;fillColor=#FFFFFF;dashed=1;dashPattern=1 4;strokeWidth=1;perimeterSpacing=0;" vertex="1" parent="7eBmMcVBxgbyp8dWVUL5-206">
          <mxGeometry x="80" y="4.230000000000018" width="125" height="36.52" as="geometry" />
        </mxCell>
        <mxCell id="7eBmMcVBxgbyp8dWVUL5-208" value="&lt;font style=&quot;font-size: 12px&quot;&gt;rx_transaction&lt;/font&gt;" style="rounded=1;whiteSpace=wrap;html=1;shadow=0;glass=0;sketch=0;strokeWidth=1;fillColor=#a0522d;fontSize=12;align=center;fontColor=#ffffff;" vertex="1" parent="7eBmMcVBxgbyp8dWVUL5-206">
          <mxGeometry x="9" width="86" height="21" as="geometry" />
        </mxCell>
        <mxCell id="7eBmMcVBxgbyp8dWVUL5-209" value="" style="group" vertex="1" connectable="0" parent="7eBmMcVBxgbyp8dWVUL5-151">
          <mxGeometry x="105" y="41.5" width="200" height="41.76000000000002" as="geometry" />
        </mxCell>
        <mxCell id="7eBmMcVBxgbyp8dWVUL5-210" value="rx_apb_seq" style="rounded=1;whiteSpace=wrap;html=1;shadow=0;glass=0;sketch=0;strokeColor=#000000;fontSize=20;align=center;fillColor=#FFFFFF;dashed=1;dashPattern=1 4;" vertex="1" parent="7eBmMcVBxgbyp8dWVUL5-209">
          <mxGeometry x="70" y="5.240000000000009" width="130" height="36.52" as="geometry" />
        </mxCell>
        <mxCell id="7eBmMcVBxgbyp8dWVUL5-211" value="&lt;font style=&quot;font-size: 12px&quot;&gt;apb_transaction&lt;/font&gt;" style="rounded=1;whiteSpace=wrap;html=1;shadow=0;glass=0;sketch=0;strokeWidth=1;fillColor=#a0522d;fontSize=12;align=center;fontColor=#ffffff;" vertex="1" parent="7eBmMcVBxgbyp8dWVUL5-209">
          <mxGeometry x="-7" width="89" height="21" as="geometry" />
        </mxCell>
        <mxCell id="7eBmMcVBxgbyp8dWVUL5-212" value="" style="endArrow=blockThin;html=1;fontSize=20;endFill=1;exitX=0.468;exitY=0.986;exitDx=0;exitDy=0;entryX=0.5;entryY=0;entryDx=0;entryDy=0;dashed=1;exitPerimeter=0;" edge="1" parent="7eBmMcVBxgbyp8dWVUL5-151" source="7eBmMcVBxgbyp8dWVUL5-207" target="7eBmMcVBxgbyp8dWVUL5-202">
          <mxGeometry width="50" height="50" relative="1" as="geometry">
            <mxPoint x="-80" y="444.5" as="sourcePoint" />
            <mxPoint x="157.5" y="439" as="targetPoint" />
          </mxGeometry>
        </mxCell>
        <mxCell id="7eBmMcVBxgbyp8dWVUL5-213" value="" style="endArrow=blockThin;html=1;fontSize=20;endFill=1;exitX=0.5;exitY=1;exitDx=0;exitDy=0;rounded=1;dashed=1;" edge="1" parent="7eBmMcVBxgbyp8dWVUL5-151" source="7eBmMcVBxgbyp8dWVUL5-210" target="7eBmMcVBxgbyp8dWVUL5-203">
          <mxGeometry width="50" height="50" relative="1" as="geometry">
            <mxPoint x="-130" y="275" as="sourcePoint" />
            <mxPoint x="-80" y="225" as="targetPoint" />
          </mxGeometry>
        </mxCell>
        <mxCell id="7eBmMcVBxgbyp8dWVUL5-214" value="" style="ellipse;whiteSpace=wrap;html=1;aspect=fixed;rounded=0;shadow=0;glass=0;sketch=0;strokeColor=#000000;fillColor=none;align=center;" vertex="1" parent="7eBmMcVBxgbyp8dWVUL5-151">
          <mxGeometry x="649" y="79.25999999999999" width="4" height="4" as="geometry" />
        </mxCell>
        <mxCell id="7eBmMcVBxgbyp8dWVUL5-215" value="" style="rounded=0;whiteSpace=wrap;html=1;shadow=0;glass=0;sketch=0;strokeColor=#000000;fillColor=none;align=center;" vertex="1" parent="7eBmMcVBxgbyp8dWVUL5-151">
          <mxGeometry x="649" y="50" width="5" height="5" as="geometry" />
        </mxCell>
        <mxCell id="7eBmMcVBxgbyp8dWVUL5-216" value="" style="endArrow=blockThin;html=1;fontSize=12;endFill=1;" edge="1" parent="7eBmMcVBxgbyp8dWVUL5-151">
          <mxGeometry width="50" height="50" relative="1" as="geometry">
            <mxPoint x="634.5" y="30" as="sourcePoint" />
            <mxPoint x="669.5" y="30" as="targetPoint" />
          </mxGeometry>
        </mxCell>
        <mxCell id="7eBmMcVBxgbyp8dWVUL5-217" value="数据流" style="text;html=1;align=center;verticalAlign=middle;resizable=0;points=[];autosize=1;fontSize=12;" vertex="1" parent="7eBmMcVBxgbyp8dWVUL5-151">
          <mxGeometry x="684" y="21.5" width="50" height="20" as="geometry" />
        </mxCell>
        <mxCell id="7eBmMcVBxgbyp8dWVUL5-218" value="Master" style="text;html=1;align=center;verticalAlign=middle;resizable=0;points=[];autosize=1;fontSize=12;" vertex="1" parent="7eBmMcVBxgbyp8dWVUL5-151">
          <mxGeometry x="684" y="42.5" width="50" height="20" as="geometry" />
        </mxCell>
        <mxCell id="7eBmMcVBxgbyp8dWVUL5-219" value="Slave" style="text;html=1;align=center;verticalAlign=middle;resizable=0;points=[];autosize=1;fontSize=12;" vertex="1" parent="7eBmMcVBxgbyp8dWVUL5-151">
          <mxGeometry x="686.5" y="71.25999999999999" width="45" height="20" as="geometry" />
        </mxCell>
        <mxCell id="7eBmMcVBxgbyp8dWVUL5-220" value="D&#39;1" style="rounded=0;whiteSpace=wrap;html=1;shadow=0;glass=0;sketch=0;strokeColor=#000000;strokeWidth=1;fillColor=#FFFFFF;fontSize=12;align=center;" vertex="1" parent="1">
          <mxGeometry x="310.89" y="242.12" width="160" height="29" as="geometry" />
        </mxCell>
        <mxCell id="7eBmMcVBxgbyp8dWVUL5-221" value="D&#39;2" style="rounded=0;whiteSpace=wrap;html=1;shadow=0;glass=0;sketch=0;strokeColor=#000000;strokeWidth=1;fillColor=#FFFFFF;fontSize=12;align=center;" vertex="1" parent="1">
          <mxGeometry x="511.89" y="242.12" width="160" height="29" as="geometry" />
        </mxCell>
        <mxCell id="7eBmMcVBxgbyp8dWVUL5-222" value="D&#39;0" style="rounded=0;whiteSpace=wrap;html=1;shadow=0;glass=0;sketch=0;strokeColor=#000000;strokeWidth=1;fillColor=#FFFFFF;fontSize=12;align=center;" vertex="1" parent="1">
          <mxGeometry x="110.89" y="241.62" width="160" height="29" as="geometry" />
        </mxCell>
        <mxCell id="7eBmMcVBxgbyp8dWVUL5-223" value="" style="endArrow=none;html=1;fontSize=12;entryX=0;entryY=1;entryDx=0;entryDy=0;" edge="1" parent="1">
          <mxGeometry width="50" height="50" relative="1" as="geometry">
            <mxPoint x="110.89000000000033" y="290.6199999999999" as="sourcePoint" />
            <mxPoint x="110.89000000000033" y="270.6199999999999" as="targetPoint" />
          </mxGeometry>
        </mxCell>
        <mxCell id="7eBmMcVBxgbyp8dWVUL5-224" value="meta 头" style="text;html=1;align=center;verticalAlign=middle;resizable=0;points=[];autosize=1;fontSize=12;" vertex="1" parent="1">
          <mxGeometry x="163.39000000000001" y="271.12" width="55" height="20" as="geometry" />
        </mxCell>
        <mxCell id="7eBmMcVBxgbyp8dWVUL5-225" value="" style="group" vertex="1" connectable="0" parent="1">
          <mxGeometry x="310.89" y="295.62" width="160.5" height="89" as="geometry" />
        </mxCell>
        <mxCell id="7eBmMcVBxgbyp8dWVUL5-226" value="D1" style="rounded=0;whiteSpace=wrap;html=1;shadow=0;glass=0;sketch=0;strokeColor=#000000;strokeWidth=1;fillColor=#FFFFFF;fontSize=12;align=center;" vertex="1" parent="7eBmMcVBxgbyp8dWVUL5-225">
          <mxGeometry x="80.5" width="40" height="29" as="geometry" />
        </mxCell>
        <mxCell id="7eBmMcVBxgbyp8dWVUL5-227" value="D0" style="rounded=0;whiteSpace=wrap;html=1;shadow=0;glass=0;sketch=0;strokeColor=#000000;strokeWidth=1;fillColor=#FFFFFF;fontSize=12;align=center;" vertex="1" parent="7eBmMcVBxgbyp8dWVUL5-225">
          <mxGeometry x="120.5" width="40" height="29" as="geometry" />
        </mxCell>
        <mxCell id="7eBmMcVBxgbyp8dWVUL5-228" value="D2" style="rounded=0;whiteSpace=wrap;html=1;shadow=0;glass=0;sketch=0;strokeColor=#000000;strokeWidth=1;fillColor=#FFFFFF;fontSize=12;align=center;" vertex="1" parent="7eBmMcVBxgbyp8dWVUL5-225">
          <mxGeometry x="40.5" width="40" height="29" as="geometry" />
        </mxCell>
        <mxCell id="7eBmMcVBxgbyp8dWVUL5-229" value="D3" style="rounded=0;whiteSpace=wrap;html=1;shadow=0;glass=0;sketch=0;strokeColor=#000000;strokeWidth=1;fillColor=#FFFFFF;fontSize=12;align=center;" vertex="1" parent="7eBmMcVBxgbyp8dWVUL5-225">
          <mxGeometry x="0.5" width="40" height="29" as="geometry" />
        </mxCell>
        <mxCell id="7eBmMcVBxgbyp8dWVUL5-230" value="D2" style="rounded=0;whiteSpace=wrap;html=1;shadow=0;glass=0;sketch=0;strokeColor=#000000;strokeWidth=1;fillColor=#FFFFFF;fontSize=12;align=center;" vertex="1" parent="7eBmMcVBxgbyp8dWVUL5-225">
          <mxGeometry x="80" y="60" width="40" height="29" as="geometry" />
        </mxCell>
        <mxCell id="7eBmMcVBxgbyp8dWVUL5-231" value="D3" style="rounded=0;whiteSpace=wrap;html=1;shadow=0;glass=0;sketch=0;strokeColor=#000000;strokeWidth=1;fillColor=#FFFFFF;fontSize=12;align=center;" vertex="1" parent="7eBmMcVBxgbyp8dWVUL5-225">
          <mxGeometry x="120" y="60" width="40" height="29" as="geometry" />
        </mxCell>
        <mxCell id="7eBmMcVBxgbyp8dWVUL5-232" value="D1" style="rounded=0;whiteSpace=wrap;html=1;shadow=0;glass=0;sketch=0;strokeColor=#000000;strokeWidth=1;fillColor=#FFFFFF;fontSize=12;align=center;" vertex="1" parent="7eBmMcVBxgbyp8dWVUL5-225">
          <mxGeometry x="40" y="60" width="40" height="29" as="geometry" />
        </mxCell>
        <mxCell id="7eBmMcVBxgbyp8dWVUL5-233" value="D0" style="rounded=0;whiteSpace=wrap;html=1;shadow=0;glass=0;sketch=0;strokeColor=#000000;strokeWidth=1;fillColor=#FFFFFF;fontSize=12;align=center;" vertex="1" parent="7eBmMcVBxgbyp8dWVUL5-225">
          <mxGeometry y="60" width="40" height="29" as="geometry" />
        </mxCell>
        <mxCell id="7eBmMcVBxgbyp8dWVUL5-234" value="" style="shape=flexArrow;endArrow=classic;html=1;fontSize=12;width=4.129032258064516;endSize=2.3496774193548386;endWidth=3.927159209157128;" edge="1" parent="7eBmMcVBxgbyp8dWVUL5-225">
          <mxGeometry width="50" height="50" relative="1" as="geometry">
            <mxPoint x="80.5" y="32" as="sourcePoint" />
            <mxPoint x="80.5" y="57" as="targetPoint" />
          </mxGeometry>
        </mxCell>
        <mxCell id="7eBmMcVBxgbyp8dWVUL5-235" value="" style="endArrow=none;html=1;entryX=0;entryY=0.5;entryDx=0;entryDy=0;exitX=0;exitY=0.5;exitDx=0;exitDy=0;" edge="1" parent="7eBmMcVBxgbyp8dWVUL5-225" source="7eBmMcVBxgbyp8dWVUL5-233" target="7eBmMcVBxgbyp8dWVUL5-229">
          <mxGeometry width="50" height="50" relative="1" as="geometry">
            <mxPoint x="-78.88999999999999" y="77.38" as="sourcePoint" />
            <mxPoint x="-28.889999999999986" y="27.379999999999995" as="targetPoint" />
            <Array as="points">
              <mxPoint x="-51.889999999999986" y="47.379999999999995" />
            </Array>
          </mxGeometry>
        </mxCell>
        <mxCell id="7eBmMcVBxgbyp8dWVUL5-236" value="" style="endArrow=none;html=1;fontSize=12;exitX=0;exitY=0;exitDx=0;exitDy=0;" edge="1" parent="1">
          <mxGeometry width="50" height="50" relative="1" as="geometry">
            <mxPoint x="110.89000000000033" y="241.6199999999999" as="sourcePoint" />
            <mxPoint x="110.89000000000033" y="210.6199999999999" as="targetPoint" />
          </mxGeometry>
        </mxCell>
        <mxCell id="7eBmMcVBxgbyp8dWVUL5-237" value="" style="endArrow=none;html=1;fontSize=12;exitX=0;exitY=0;exitDx=0;exitDy=0;" edge="1" parent="1">
          <mxGeometry width="50" height="50" relative="1" as="geometry">
            <mxPoint x="270.8900000000003" y="241.6199999999999" as="sourcePoint" />
            <mxPoint x="270.8900000000003" y="215.6199999999999" as="targetPoint" />
          </mxGeometry>
        </mxCell>
        <mxCell id="7eBmMcVBxgbyp8dWVUL5-238" value="" style="endArrow=blockThin;startArrow=blockThin;html=1;fontSize=12;endFill=1;startFill=1;" edge="1" parent="1">
          <mxGeometry width="50" height="50" relative="1" as="geometry">
            <mxPoint x="110.89000000000033" y="225.6199999999999" as="sourcePoint" />
            <mxPoint x="270.8900000000003" y="225.6199999999999" as="targetPoint" />
          </mxGeometry>
        </mxCell>
        <mxCell id="7eBmMcVBxgbyp8dWVUL5-239" value="32byte" style="edgeLabel;html=1;align=center;verticalAlign=middle;resizable=0;points=[];fontSize=12;" vertex="1" connectable="0" parent="7eBmMcVBxgbyp8dWVUL5-238">
          <mxGeometry x="-0.0798" relative="1" as="geometry">
            <mxPoint as="offset" />
          </mxGeometry>
        </mxCell>
        <mxCell id="7eBmMcVBxgbyp8dWVUL5-240" value="&lt;font style=&quot;font-size: 20px&quot;&gt;......&lt;/font&gt;" style="text;html=1;align=center;verticalAlign=middle;resizable=0;points=[];autosize=1;fontSize=12;" vertex="1" parent="1">
          <mxGeometry x="512.39" y="295.62" width="45" height="25" as="geometry" />
        </mxCell>
        <mxCell id="7eBmMcVBxgbyp8dWVUL5-241" value="&lt;font style=&quot;font-size: 20px&quot;&gt;......&lt;/font&gt;" style="text;html=1;align=center;verticalAlign=middle;resizable=0;points=[];autosize=1;fontSize=12;" vertex="1" parent="1">
          <mxGeometry x="511.89" y="355.62" width="45" height="25" as="geometry" />
        </mxCell>
        <mxCell id="7eBmMcVBxgbyp8dWVUL5-242" value="" style="shape=flexArrow;endArrow=classic;html=1;fontSize=12;width=4.129032258064516;endSize=2.3496774193548386;endWidth=3.927159209157128;" edge="1" parent="1">
          <mxGeometry width="50" height="50" relative="1" as="geometry">
            <mxPoint x="495.8900000000003" y="390.6199999999999" as="sourcePoint" />
            <mxPoint x="495.8900000000003" y="415.6199999999999" as="targetPoint" />
          </mxGeometry>
        </mxCell>
        <mxCell id="7eBmMcVBxgbyp8dWVUL5-243" value="D0" style="rounded=0;whiteSpace=wrap;html=1;shadow=0;glass=0;sketch=0;strokeColor=#000000;strokeWidth=1;fillColor=#FFFFFF;fontSize=12;align=center;" vertex="1" parent="1">
          <mxGeometry x="378.14" y="446.62" width="40" height="29" as="geometry" />
        </mxCell>
        <mxCell id="7eBmMcVBxgbyp8dWVUL5-244" value="D1" style="rounded=0;whiteSpace=wrap;html=1;shadow=0;glass=0;sketch=0;strokeColor=#000000;strokeWidth=1;fillColor=#FFFFFF;fontSize=12;align=center;" vertex="1" parent="1">
          <mxGeometry x="418.14" y="446.62" width="40" height="29" as="geometry" />
        </mxCell>
        <mxCell id="7eBmMcVBxgbyp8dWVUL5-245" value="D2" style="rounded=0;whiteSpace=wrap;html=1;shadow=0;glass=0;sketch=0;strokeColor=#000000;strokeWidth=1;fillColor=#FFFFFF;fontSize=12;align=center;" vertex="1" parent="1">
          <mxGeometry x="458.14" y="446.62" width="40" height="29" as="geometry" />
        </mxCell>
        <mxCell id="7eBmMcVBxgbyp8dWVUL5-246" value="Dn" style="rounded=0;whiteSpace=wrap;html=1;shadow=0;glass=0;sketch=0;strokeColor=#000000;strokeWidth=1;fillColor=#FFFFFF;fontSize=12;align=center;" vertex="1" parent="1">
          <mxGeometry x="573.14" y="446.62" width="40" height="29" as="geometry" />
        </mxCell>
        <mxCell id="7eBmMcVBxgbyp8dWVUL5-247" value="....." style="rounded=0;whiteSpace=wrap;html=1;shadow=0;glass=0;sketch=0;strokeColor=#000000;strokeWidth=1;fillColor=#FFFFFF;fontSize=12;align=center;verticalAlign=top;" vertex="1" parent="1">
          <mxGeometry x="498.14" y="446.62" width="75" height="29" as="geometry" />
        </mxCell>
        <mxCell id="7eBmMcVBxgbyp8dWVUL5-248" value="" style="endArrow=none;html=1;fontSize=12;exitX=0;exitY=0;exitDx=0;exitDy=0;" edge="1" parent="1" source="7eBmMcVBxgbyp8dWVUL5-243">
          <mxGeometry width="50" height="50" relative="1" as="geometry">
            <mxPoint x="383.14" y="455.62" as="sourcePoint" />
            <mxPoint x="378.1399999999994" y="420.6199999999999" as="targetPoint" />
          </mxGeometry>
        </mxCell>
        <mxCell id="7eBmMcVBxgbyp8dWVUL5-249" value="" style="endArrow=none;html=1;fontSize=12;exitX=1;exitY=0;exitDx=0;exitDy=0;" edge="1" parent="1" source="7eBmMcVBxgbyp8dWVUL5-243">
          <mxGeometry width="50" height="50" relative="1" as="geometry">
            <mxPoint x="453.14" y="420.62" as="sourcePoint" />
            <mxPoint x="418.1399999999994" y="420.6199999999999" as="targetPoint" />
          </mxGeometry>
        </mxCell>
        <mxCell id="7eBmMcVBxgbyp8dWVUL5-250" value="8byte" style="text;html=1;align=center;verticalAlign=middle;resizable=0;points=[];autosize=1;fontSize=12;" vertex="1" parent="1">
          <mxGeometry x="378.14" y="415.62" width="40" height="20" as="geometry" />
        </mxCell>
        <mxCell id="7eBmMcVBxgbyp8dWVUL5-251" value="" style="shape=curlyBracket;whiteSpace=wrap;html=1;rounded=1;shadow=0;glass=0;sketch=0;strokeColor=#000000;strokeWidth=1;fillColor=#FFFFFF;fontSize=12;align=center;direction=north;" vertex="1" parent="1">
          <mxGeometry x="378.14" y="475.62" width="235" height="30" as="geometry" />
        </mxCell>
        <mxCell id="7eBmMcVBxgbyp8dWVUL5-252" value="&lt;span&gt;64-4096byte&lt;/span&gt;" style="text;html=1;align=center;verticalAlign=middle;resizable=0;points=[];autosize=1;fontSize=12;" vertex="1" parent="1">
          <mxGeometry x="458.14" y="500.62" width="80" height="20" as="geometry" />
        </mxCell>
        <mxCell id="7eBmMcVBxgbyp8dWVUL5-253" value="" style="endArrow=none;html=1;fontSize=12;" edge="1" parent="1">
          <mxGeometry width="50" height="50" relative="1" as="geometry">
            <mxPoint x="573.1399999999994" y="446.6199999999999" as="sourcePoint" />
            <mxPoint x="558.1399999999994" y="420.6199999999999" as="targetPoint" />
          </mxGeometry>
        </mxCell>
        <mxCell id="7eBmMcVBxgbyp8dWVUL5-254" value="" style="endArrow=none;html=1;fontSize=12;" edge="1" parent="1">
          <mxGeometry width="50" height="50" relative="1" as="geometry">
            <mxPoint x="613.1399999999994" y="446.6199999999999" as="sourcePoint" />
            <mxPoint x="628.1399999999994" y="420.6199999999999" as="targetPoint" />
          </mxGeometry>
        </mxCell>
        <mxCell id="7eBmMcVBxgbyp8dWVUL5-255" value="1-8byte" style="text;html=1;align=center;verticalAlign=middle;resizable=0;points=[];autosize=1;fontSize=12;" vertex="1" parent="1">
          <mxGeometry x="565.64" y="416.88" width="55" height="20" as="geometry" />
        </mxCell>
        <mxCell id="7eBmMcVBxgbyp8dWVUL5-256" value="7&amp;lt;=n&amp;lt;=511" style="text;html=1;align=center;verticalAlign=middle;resizable=0;points=[];autosize=1;fontSize=12;" vertex="1" parent="1">
          <mxGeometry x="620.64" y="451.12" width="75" height="20" as="geometry" />
        </mxCell>
        <mxCell id="7eBmMcVBxgbyp8dWVUL5-257" value="" style="endArrow=none;html=1;fontSize=12;entryX=0;entryY=1;entryDx=0;entryDy=0;sketch=0;" edge="1" parent="1" target="7eBmMcVBxgbyp8dWVUL5-220">
          <mxGeometry width="50" height="50" relative="1" as="geometry">
            <mxPoint x="305.8900000000003" y="291.6199999999999" as="sourcePoint" />
            <mxPoint x="335.89" y="276.12" as="targetPoint" />
          </mxGeometry>
        </mxCell>
        <mxCell id="7eBmMcVBxgbyp8dWVUL5-258" value="" style="endArrow=classic;html=1;fontSize=12;" edge="1" parent="1">
          <mxGeometry width="50" height="50" relative="1" as="geometry">
            <mxPoint x="105.89000000000033" y="210.6199999999999" as="sourcePoint" />
            <mxPoint x="729.3899999999994" y="210.6199999999999" as="targetPoint" />
          </mxGeometry>
        </mxCell>
        <mxCell id="7eBmMcVBxgbyp8dWVUL5-259" value="@clk" style="edgeLabel;html=1;align=center;verticalAlign=middle;resizable=0;points=[];fontSize=12;" vertex="1" connectable="0" parent="7eBmMcVBxgbyp8dWVUL5-258">
          <mxGeometry x="-0.9667" relative="1" as="geometry">
            <mxPoint x="-23.86" as="offset" />
          </mxGeometry>
        </mxCell>
        <mxCell id="7eBmMcVBxgbyp8dWVUL5-260" value="@clk" style="edgeLabel;html=1;align=center;verticalAlign=middle;resizable=0;points=[];fontSize=12;" vertex="1" connectable="0" parent="7eBmMcVBxgbyp8dWVUL5-258">
          <mxGeometry x="-0.3126" relative="1" as="geometry">
            <mxPoint x="-29.17" as="offset" />
          </mxGeometry>
        </mxCell>
        <mxCell id="7eBmMcVBxgbyp8dWVUL5-261" value="@clk" style="edgeLabel;html=1;align=center;verticalAlign=middle;resizable=0;points=[];fontSize=12;" vertex="1" connectable="0" parent="7eBmMcVBxgbyp8dWVUL5-258">
          <mxGeometry x="0.3018" relative="1" as="geometry">
            <mxPoint x="-20.999999999999993" as="offset" />
          </mxGeometry>
        </mxCell>
        <mxCell id="7eBmMcVBxgbyp8dWVUL5-262" value="" style="endArrow=none;html=1;fontSize=12;sketch=0;" edge="1" parent="1">
          <mxGeometry width="50" height="50" relative="1" as="geometry">
            <mxPoint x="310.8900000000003" y="242.1199999999999" as="sourcePoint" />
            <mxPoint x="310.8900000000003" y="211.1199999999999" as="targetPoint" />
          </mxGeometry>
        </mxCell>
        <mxCell id="7eBmMcVBxgbyp8dWVUL5-263" value="" style="endArrow=none;html=1;fontSize=12;sketch=0;" edge="1" parent="1">
          <mxGeometry width="50" height="50" relative="1" as="geometry">
            <mxPoint x="511.8899999999994" y="242.6199999999999" as="sourcePoint" />
            <mxPoint x="511.8899999999994" y="211.1199999999999" as="targetPoint" />
          </mxGeometry>
        </mxCell>
        <mxCell id="7eBmMcVBxgbyp8dWVUL5-264" value="" style="endArrow=none;html=1;fontSize=12;entryX=0;entryY=1;entryDx=0;entryDy=0;sketch=0;" edge="1" parent="1">
          <mxGeometry width="50" height="50" relative="1" as="geometry">
            <mxPoint x="270.8900000000003" y="291.1199999999999" as="sourcePoint" />
            <mxPoint x="270.8900000000003" y="271.1199999999999" as="targetPoint" />
          </mxGeometry>
        </mxCell>
        <mxCell id="7eBmMcVBxgbyp8dWVUL5-265" value="" style="endArrow=none;html=1;fontSize=12;entryX=0;entryY=1;entryDx=0;entryDy=0;sketch=0;" edge="1" parent="1">
          <mxGeometry width="50" height="50" relative="1" as="geometry">
            <mxPoint x="475.8900000000003" y="291.6199999999999" as="sourcePoint" />
            <mxPoint x="470.8900000000003" y="271.6199999999999" as="targetPoint" />
          </mxGeometry>
        </mxCell>
        <mxCell id="7eBmMcVBxgbyp8dWVUL5-266" value="&lt;font style=&quot;font-size: 12px;&quot;&gt;drv_imp&lt;/font&gt;" style="text;html=1;align=center;verticalAlign=middle;resizable=0;points=[];autosize=1;fontSize=12;" vertex="1" parent="1">
          <mxGeometry x="-365" y="545" width="55" height="20" as="geometry" />
        </mxCell>
        <mxCell id="7eBmMcVBxgbyp8dWVUL5-267" value="&lt;font style=&quot;font-size: 12px;&quot;&gt;rmon_imp&lt;/font&gt;" style="text;html=1;align=center;verticalAlign=middle;resizable=0;points=[];autosize=1;fontSize=12;sketch=0;" vertex="1" parent="1">
          <mxGeometry x="-285.5" y="575" width="65" height="20" as="geometry" />
        </mxCell>
        <mxCell id="7eBmMcVBxgbyp8dWVUL5-268" value="&lt;font style=&quot;font-size: 12px;&quot;&gt;lmon_imp&lt;/font&gt;" style="text;html=1;align=center;verticalAlign=middle;resizable=0;points=[];autosize=1;fontSize=12;" vertex="1" parent="1">
          <mxGeometry x="-260" y="547" width="65" height="20" as="geometry" />
        </mxCell>
        <mxCell id="7eBmMcVBxgbyp8dWVUL5-269" value="" style="ellipse;whiteSpace=wrap;html=1;aspect=fixed;rounded=0;shadow=0;glass=0;sketch=0;strokeColor=#000000;align=center;" vertex="1" parent="1">
          <mxGeometry x="-255" y="563" width="4" height="4" as="geometry" />
        </mxCell>
        <mxCell id="7eBmMcVBxgbyp8dWVUL5-270" value="scb" style="rounded=0;whiteSpace=wrap;html=1;shadow=0;glass=0;sketch=0;fillColor=#60a917;fontSize=20;fontColor=#ffffff;" vertex="1" parent="1">
          <mxGeometry x="-311" y="550" width="56" height="30" as="geometry" />
        </mxCell>
        <mxCell id="7eBmMcVBxgbyp8dWVUL5-271" value="" style="ellipse;whiteSpace=wrap;html=1;aspect=fixed;rounded=0;shadow=0;glass=0;sketch=0;strokeColor=#000000;align=center;" vertex="1" parent="1">
          <mxGeometry x="-315" y="563" width="4" height="4" as="geometry" />
        </mxCell>
        <mxCell id="7eBmMcVBxgbyp8dWVUL5-272" value="" style="ellipse;whiteSpace=wrap;html=1;aspect=fixed;rounded=0;shadow=0;glass=0;sketch=0;strokeColor=#000000;align=center;" vertex="1" parent="1">
          <mxGeometry x="-285" y="580" width="4" height="4" as="geometry" />
        </mxCell>
        <mxCell id="7eBmMcVBxgbyp8dWVUL5-273" value="lmon_port" style="text;html=1;align=center;verticalAlign=middle;resizable=0;points=[];autosize=1;fontSize=12;" vertex="1" parent="1">
          <mxGeometry x="-190" y="547" width="65" height="20" as="geometry" />
        </mxCell>
        <mxCell id="7eBmMcVBxgbyp8dWVUL5-274" value="" style="group" vertex="1" connectable="0" parent="1">
          <mxGeometry x="-455" y="549" width="45" height="30" as="geometry" />
        </mxCell>
        <mxCell id="7eBmMcVBxgbyp8dWVUL5-275" value="drv" style="rounded=0;whiteSpace=wrap;html=1;strokeColor=#000000;fillColor=#FFFFFF;fontSize=20;" vertex="1" parent="7eBmMcVBxgbyp8dWVUL5-274">
          <mxGeometry width="40" height="30" as="geometry" />
        </mxCell>
        <mxCell id="7eBmMcVBxgbyp8dWVUL5-276" value="" style="rounded=0;whiteSpace=wrap;html=1;shadow=0;glass=0;sketch=0;strokeColor=#000000;align=center;" vertex="1" parent="7eBmMcVBxgbyp8dWVUL5-274">
          <mxGeometry x="40" y="13.5" width="5" height="5" as="geometry" />
        </mxCell>
        <mxCell id="7eBmMcVBxgbyp8dWVUL5-277" value="" style="edgeStyle=none;orthogonalLoop=1;jettySize=auto;html=1;endArrow=blockThin;endFill=1;entryX=0;entryY=0.5;entryDx=0;entryDy=0;rounded=0;" edge="1" parent="1" source="7eBmMcVBxgbyp8dWVUL5-276" target="7eBmMcVBxgbyp8dWVUL5-271">
          <mxGeometry relative="1" as="geometry">
            <mxPoint x="1325" y="60" as="targetPoint" />
            <Array as="points">
              <mxPoint x="-365" y="565" />
            </Array>
          </mxGeometry>
        </mxCell>
        <mxCell id="7eBmMcVBxgbyp8dWVUL5-278" value="rdma_mon" style="rounded=0;whiteSpace=wrap;html=1;shadow=0;glass=0;sketch=0;strokeColor=#000000;fontSize=20;" vertex="1" parent="1">
          <mxGeometry x="-333" y="624" width="105" height="30" as="geometry" />
        </mxCell>
        <mxCell id="7eBmMcVBxgbyp8dWVUL5-279" value="rmon_port" style="text;html=1;align=center;verticalAlign=middle;resizable=0;points=[];autosize=1;fontSize=12;" vertex="1" parent="1">
          <mxGeometry x="-286" y="605" width="70" height="20" as="geometry" />
        </mxCell>
        <mxCell id="7eBmMcVBxgbyp8dWVUL5-280" value="" style="rounded=0;whiteSpace=wrap;html=1;shadow=0;glass=0;sketch=0;strokeColor=#000000;align=center;" vertex="1" parent="1">
          <mxGeometry x="-285.5" y="619" width="5" height="5" as="geometry" />
        </mxCell>
        <mxCell id="7eBmMcVBxgbyp8dWVUL5-281" value="" style="endArrow=blockThin;html=1;fontSize=12;entryX=0.5;entryY=1;entryDx=0;entryDy=0;exitX=0.5;exitY=0;exitDx=0;exitDy=0;endFill=1;" edge="1" parent="1" source="7eBmMcVBxgbyp8dWVUL5-280" target="7eBmMcVBxgbyp8dWVUL5-272">
          <mxGeometry width="50" height="50" relative="1" as="geometry">
            <mxPoint x="-364" y="688" as="sourcePoint" />
            <mxPoint x="-314" y="638" as="targetPoint" />
          </mxGeometry>
        </mxCell>
        <mxCell id="7eBmMcVBxgbyp8dWVUL5-282" value="" style="group" vertex="1" connectable="0" parent="1">
          <mxGeometry x="-130" y="549" width="90" height="30" as="geometry" />
        </mxCell>
        <mxCell id="7eBmMcVBxgbyp8dWVUL5-283" value="lan_mon" style="rounded=0;whiteSpace=wrap;html=1;shadow=0;glass=0;sketch=0;strokeColor=#000000;fontSize=20;" vertex="1" parent="7eBmMcVBxgbyp8dWVUL5-282">
          <mxGeometry x="5" width="85" height="30" as="geometry" />
        </mxCell>
        <mxCell id="7eBmMcVBxgbyp8dWVUL5-284" value="" style="rounded=0;whiteSpace=wrap;html=1;shadow=0;glass=0;sketch=0;strokeColor=#000000;align=center;" vertex="1" parent="7eBmMcVBxgbyp8dWVUL5-282">
          <mxGeometry y="14" width="5" height="5" as="geometry" />
        </mxCell>
        <mxCell id="7eBmMcVBxgbyp8dWVUL5-285" value="" style="endArrow=blockThin;html=1;fontSize=12;entryX=1;entryY=0.5;entryDx=0;entryDy=0;exitX=0;exitY=0.5;exitDx=0;exitDy=0;endFill=1;" edge="1" parent="1" source="7eBmMcVBxgbyp8dWVUL5-284" target="7eBmMcVBxgbyp8dWVUL5-269">
          <mxGeometry width="50" height="50" relative="1" as="geometry">
            <mxPoint x="-127" y="569" as="sourcePoint" />
            <mxPoint x="-232" y="571" as="targetPoint" />
          </mxGeometry>
        </mxCell>
        <mxCell id="7eBmMcVBxgbyp8dWVUL5-286" value="drv_port" style="text;html=1;align=center;verticalAlign=middle;resizable=0;points=[];autosize=1;fontSize=12;" vertex="1" parent="1">
          <mxGeometry x="-420" y="545" width="55" height="20" as="geometry" />
        </mxCell>
        <mxCell id="7eBmMcVBxgbyp8dWVUL5-287" value="pkg0" style="rounded=0;whiteSpace=wrap;html=1;shadow=0;glass=0;sketch=0;strokeColor=#000000;strokeWidth=1;fillColor=#FFFFFF;fontSize=12;align=center;" vertex="1" parent="1">
          <mxGeometry x="119.11000000000001" y="588.5" width="40" height="29" as="geometry" />
        </mxCell>
        <mxCell id="7eBmMcVBxgbyp8dWVUL5-288" value="pkg1" style="rounded=0;whiteSpace=wrap;html=1;shadow=0;glass=0;sketch=0;strokeColor=#000000;strokeWidth=1;fillColor=#FFFFFF;fontSize=12;align=center;" vertex="1" parent="1">
          <mxGeometry x="159.11" y="588.5" width="40" height="29" as="geometry" />
        </mxCell>
        <mxCell id="7eBmMcVBxgbyp8dWVUL5-289" value="......" style="rounded=0;whiteSpace=wrap;html=1;shadow=0;glass=0;sketch=0;strokeColor=#000000;strokeWidth=1;fillColor=#FFFFFF;fontSize=12;align=center;" vertex="1" parent="1">
          <mxGeometry x="199.11" y="588.5" width="65" height="29" as="geometry" />
        </mxCell>
        <mxCell id="7eBmMcVBxgbyp8dWVUL5-290" value="pkgn" style="rounded=0;whiteSpace=wrap;html=1;shadow=0;glass=0;sketch=0;strokeColor=#000000;strokeWidth=1;fillColor=#FFFFFF;fontSize=12;align=center;" vertex="1" parent="1">
          <mxGeometry x="264.11" y="588.5" width="40" height="29" as="geometry" />
        </mxCell>
        <mxCell id="7eBmMcVBxgbyp8dWVUL5-291" value="drv_q" style="text;html=1;align=center;verticalAlign=middle;resizable=0;points=[];autosize=1;fontSize=12;" vertex="1" parent="1">
          <mxGeometry x="75.11000000000001" y="593" width="45" height="20" as="geometry" />
        </mxCell>
        <mxCell id="7eBmMcVBxgbyp8dWVUL5-292" value="" style="endArrow=classic;startArrow=classic;html=1;fontSize=12;" edge="1" parent="1">
          <mxGeometry width="50" height="50" relative="1" as="geometry">
            <mxPoint x="119.10999999999967" y="628.5000000000005" as="sourcePoint" />
            <mxPoint x="304.1099999999997" y="628.5000000000005" as="targetPoint" />
          </mxGeometry>
        </mxCell>
        <mxCell id="7eBmMcVBxgbyp8dWVUL5-293" value="pkg_num" style="edgeLabel;html=1;align=center;verticalAlign=middle;resizable=0;points=[];fontSize=12;" vertex="1" connectable="0" parent="7eBmMcVBxgbyp8dWVUL5-292">
          <mxGeometry x="-0.078" y="-1" relative="1" as="geometry">
            <mxPoint x="9.86" as="offset" />
          </mxGeometry>
        </mxCell>
        <mxCell id="7eBmMcVBxgbyp8dWVUL5-294" value="" style="endArrow=blockThin;html=1;fontSize=12;endFill=1;" edge="1" parent="1">
          <mxGeometry width="50" height="50" relative="1" as="geometry">
            <mxPoint x="329.1099999999997" y="573.5000000000005" as="sourcePoint" />
            <mxPoint x="299.1099999999997" y="603.5000000000005" as="targetPoint" />
            <Array as="points">
              <mxPoint x="324.11" y="598.5" />
            </Array>
          </mxGeometry>
        </mxCell>
        <mxCell id="7eBmMcVBxgbyp8dWVUL5-295" value="push_back" style="text;html=1;align=center;verticalAlign=middle;resizable=0;points=[];autosize=1;fontSize=12;" vertex="1" parent="1">
          <mxGeometry x="295.11" y="555" width="70" height="20" as="geometry" />
        </mxCell>
        <mxCell id="7eBmMcVBxgbyp8dWVUL5-296" value="pkg0" style="rounded=0;whiteSpace=wrap;html=1;shadow=0;glass=0;sketch=0;strokeColor=#000000;strokeWidth=1;fillColor=#FFFFFF;fontSize=12;align=center;" vertex="1" parent="1">
          <mxGeometry x="119.11000000000001" y="682" width="40" height="29" as="geometry" />
        </mxCell>
        <mxCell id="7eBmMcVBxgbyp8dWVUL5-297" value="pkg1" style="rounded=0;whiteSpace=wrap;html=1;shadow=0;glass=0;sketch=0;strokeColor=#000000;strokeWidth=1;fillColor=#FFFFFF;fontSize=12;align=center;" vertex="1" parent="1">
          <mxGeometry x="159.11" y="682" width="40" height="29" as="geometry" />
        </mxCell>
        <mxCell id="7eBmMcVBxgbyp8dWVUL5-298" value="......" style="rounded=0;whiteSpace=wrap;html=1;shadow=0;glass=0;sketch=0;strokeColor=#000000;strokeWidth=1;fillColor=#FFFFFF;fontSize=12;align=center;" vertex="1" parent="1">
          <mxGeometry x="199.11" y="682" width="65" height="29" as="geometry" />
        </mxCell>
        <mxCell id="7eBmMcVBxgbyp8dWVUL5-299" value="pkgn" style="rounded=0;whiteSpace=wrap;html=1;shadow=0;glass=0;sketch=0;strokeColor=#000000;strokeWidth=1;fillColor=#FFFFFF;fontSize=12;align=center;" vertex="1" parent="1">
          <mxGeometry x="264.11" y="682" width="40" height="29" as="geometry" />
        </mxCell>
        <mxCell id="7eBmMcVBxgbyp8dWVUL5-300" value="rmon_q" style="text;html=1;align=center;verticalAlign=middle;resizable=0;points=[];autosize=1;fontSize=12;" vertex="1" parent="1">
          <mxGeometry x="67.61000000000001" y="686.5" width="55" height="20" as="geometry" />
        </mxCell>
        <mxCell id="7eBmMcVBxgbyp8dWVUL5-301" value="" style="endArrow=blockThin;html=1;fontSize=12;endFill=1;" edge="1" parent="1">
          <mxGeometry width="50" height="50" relative="1" as="geometry">
            <mxPoint x="329.1099999999997" y="667" as="sourcePoint" />
            <mxPoint x="299.1099999999997" y="697" as="targetPoint" />
            <Array as="points">
              <mxPoint x="324.11" y="692" />
            </Array>
          </mxGeometry>
        </mxCell>
        <mxCell id="7eBmMcVBxgbyp8dWVUL5-302" value="push_back" style="text;html=1;align=center;verticalAlign=middle;resizable=0;points=[];autosize=1;fontSize=12;" vertex="1" parent="1">
          <mxGeometry x="295.11" y="648.5" width="70" height="20" as="geometry" />
        </mxCell>
        <mxCell id="7eBmMcVBxgbyp8dWVUL5-303" value="pkg0" style="rounded=0;whiteSpace=wrap;html=1;shadow=0;glass=0;sketch=0;strokeColor=#000000;strokeWidth=1;fillColor=#FFFFFF;fontSize=12;align=center;" vertex="1" parent="1">
          <mxGeometry x="125" y="767" width="40" height="29" as="geometry" />
        </mxCell>
        <mxCell id="7eBmMcVBxgbyp8dWVUL5-304" value="pkg1" style="rounded=0;whiteSpace=wrap;html=1;shadow=0;glass=0;sketch=0;strokeColor=#000000;strokeWidth=1;fillColor=#FFFFFF;fontSize=12;align=center;" vertex="1" parent="1">
          <mxGeometry x="165" y="767" width="40" height="29" as="geometry" />
        </mxCell>
        <mxCell id="7eBmMcVBxgbyp8dWVUL5-305" value="......" style="rounded=0;whiteSpace=wrap;html=1;shadow=0;glass=0;sketch=0;strokeColor=#000000;strokeWidth=1;fillColor=#FFFFFF;fontSize=12;align=center;" vertex="1" parent="1">
          <mxGeometry x="205" y="767" width="65" height="29" as="geometry" />
        </mxCell>
        <mxCell id="7eBmMcVBxgbyp8dWVUL5-306" value="pkgn" style="rounded=0;whiteSpace=wrap;html=1;shadow=0;glass=0;sketch=0;strokeColor=#000000;strokeWidth=1;fillColor=#FFFFFF;fontSize=12;align=center;" vertex="1" parent="1">
          <mxGeometry x="270" y="767" width="40" height="29" as="geometry" />
        </mxCell>
        <mxCell id="7eBmMcVBxgbyp8dWVUL5-307" value="lmon_q" style="text;html=1;align=center;verticalAlign=middle;resizable=0;points=[];autosize=1;fontSize=12;" vertex="1" parent="1">
          <mxGeometry x="76" y="771.5" width="50" height="20" as="geometry" />
        </mxCell>
        <mxCell id="7eBmMcVBxgbyp8dWVUL5-308" value="" style="endArrow=blockThin;html=1;fontSize=12;endFill=1;" edge="1" parent="1">
          <mxGeometry width="50" height="50" relative="1" as="geometry">
            <mxPoint x="334.9999999999991" y="752" as="sourcePoint" />
            <mxPoint x="304.9999999999991" y="782" as="targetPoint" />
            <Array as="points">
              <mxPoint x="330" y="777" />
            </Array>
          </mxGeometry>
        </mxCell>
        <mxCell id="7eBmMcVBxgbyp8dWVUL5-309" value="push_back" style="text;html=1;align=center;verticalAlign=middle;resizable=0;points=[];autosize=1;fontSize=12;" vertex="1" parent="1">
          <mxGeometry x="301" y="733.5" width="70" height="20" as="geometry" />
        </mxCell>
        <mxCell id="7eBmMcVBxgbyp8dWVUL5-310" value="pkg0" style="rounded=0;whiteSpace=wrap;html=1;shadow=0;glass=0;sketch=0;strokeColor=#000000;strokeWidth=1;fillColor=#FFFFFF;fontSize=12;align=center;" vertex="1" parent="1">
          <mxGeometry x="513" y="657.5" width="40" height="29" as="geometry" />
        </mxCell>
        <mxCell id="7eBmMcVBxgbyp8dWVUL5-311" value="pkg1" style="rounded=0;whiteSpace=wrap;html=1;shadow=0;glass=0;sketch=0;strokeColor=#000000;strokeWidth=1;fillColor=#FFFFFF;fontSize=12;align=center;" vertex="1" parent="1">
          <mxGeometry x="553" y="657.5" width="40" height="29" as="geometry" />
        </mxCell>
        <mxCell id="7eBmMcVBxgbyp8dWVUL5-312" value="......" style="rounded=0;whiteSpace=wrap;html=1;shadow=0;glass=0;sketch=0;strokeColor=#000000;strokeWidth=1;fillColor=#FFFFFF;fontSize=12;align=center;" vertex="1" parent="1">
          <mxGeometry x="593" y="657.5" width="65" height="29" as="geometry" />
        </mxCell>
        <mxCell id="7eBmMcVBxgbyp8dWVUL5-313" value="pkgn" style="rounded=0;whiteSpace=wrap;html=1;shadow=0;glass=0;sketch=0;strokeColor=#000000;strokeWidth=1;fillColor=#FFFFFF;fontSize=12;align=center;" vertex="1" parent="1">
          <mxGeometry x="658" y="657.5" width="40" height="29" as="geometry" />
        </mxCell>
        <mxCell id="7eBmMcVBxgbyp8dWVUL5-314" value="drv_q" style="text;html=1;align=center;verticalAlign=middle;resizable=0;points=[];autosize=1;fontSize=12;" vertex="1" parent="1">
          <mxGeometry x="468" y="654" width="45" height="20" as="geometry" />
        </mxCell>
        <mxCell id="7eBmMcVBxgbyp8dWVUL5-315" value="" style="curved=1;endArrow=classic;html=1;fontSize=12;" edge="1" parent="1">
          <mxGeometry width="50" height="50" relative="1" as="geometry">
            <mxPoint x="517" y="674" as="sourcePoint" />
            <mxPoint x="514.9999999999991" y="750" as="targetPoint" />
            <Array as="points">
              <mxPoint x="480" y="683" />
              <mxPoint x="469" y="734" />
            </Array>
          </mxGeometry>
        </mxCell>
        <mxCell id="7eBmMcVBxgbyp8dWVUL5-316" value="" style="shape=curlyBracket;whiteSpace=wrap;html=1;rounded=1;shadow=0;glass=0;sketch=0;strokeColor=#000000;strokeWidth=1;fillColor=none;fontSize=12;align=center;size=0.5;" vertex="1" parent="1">
          <mxGeometry x="518" y="718" width="6" height="64" as="geometry" />
        </mxCell>
        <mxCell id="7eBmMcVBxgbyp8dWVUL5-317" value="ipv4" style="text;html=1;align=center;verticalAlign=middle;resizable=0;points=[];autosize=1;fontSize=12;" vertex="1" parent="1">
          <mxGeometry x="524" y="716" width="33" height="19" as="geometry" />
        </mxCell>
        <mxCell id="7eBmMcVBxgbyp8dWVUL5-318" value="ipv6" style="text;html=1;align=center;verticalAlign=middle;resizable=0;points=[];autosize=1;fontSize=12;" vertex="1" parent="1">
          <mxGeometry x="523" y="740.5" width="33" height="19" as="geometry" />
        </mxCell>
        <mxCell id="7eBmMcVBxgbyp8dWVUL5-319" value="lan" style="text;html=1;align=center;verticalAlign=middle;resizable=0;points=[];autosize=1;fontSize=12;" vertex="1" parent="1">
          <mxGeometry x="524" y="766" width="27" height="19" as="geometry" />
        </mxCell>
        <mxCell id="7eBmMcVBxgbyp8dWVUL5-320" value="pop_front" style="text;html=1;align=center;verticalAlign=middle;resizable=0;points=[];autosize=1;fontSize=12;" vertex="1" parent="1">
          <mxGeometry x="447" y="742" width="62" height="19" as="geometry" />
        </mxCell>
        <mxCell id="7eBmMcVBxgbyp8dWVUL5-321" value="rmon_q.pop_front" style="text;html=1;align=center;verticalAlign=middle;resizable=0;points=[];autosize=1;fontSize=12;" vertex="1" parent="1">
          <mxGeometry x="665" y="730" width="106" height="19" as="geometry" />
        </mxCell>
        <mxCell id="7eBmMcVBxgbyp8dWVUL5-322" value="" style="endArrow=blockThin;html=1;fontSize=12;exitX=1.007;exitY=0.517;exitDx=0;exitDy=0;exitPerimeter=0;endFill=1;" edge="1" parent="1" source="7eBmMcVBxgbyp8dWVUL5-317">
          <mxGeometry width="50" height="50" relative="1" as="geometry">
            <mxPoint x="578" y="778" as="sourcePoint" />
            <mxPoint x="664.9999999999991" y="735" as="targetPoint" />
          </mxGeometry>
        </mxCell>
        <mxCell id="7eBmMcVBxgbyp8dWVUL5-323" value="compare" style="edgeLabel;html=1;align=center;verticalAlign=middle;resizable=0;points=[];fontSize=12;" vertex="1" connectable="0" parent="7eBmMcVBxgbyp8dWVUL5-322">
          <mxGeometry x="-0.2575" y="1" relative="1" as="geometry">
            <mxPoint as="offset" />
          </mxGeometry>
        </mxCell>
        <mxCell id="7eBmMcVBxgbyp8dWVUL5-324" value="" style="endArrow=blockThin;html=1;fontSize=12;exitX=1.013;exitY=0.497;exitDx=0;exitDy=0;exitPerimeter=0;endFill=1;" edge="1" parent="1" source="7eBmMcVBxgbyp8dWVUL5-318">
          <mxGeometry width="50" height="50" relative="1" as="geometry">
            <mxPoint x="554.0010000000002" y="750.003" as="sourcePoint" />
            <mxPoint x="664.9999999999991" y="740.9999999999995" as="targetPoint" />
          </mxGeometry>
        </mxCell>
        <mxCell id="7eBmMcVBxgbyp8dWVUL5-325" value="compare" style="edgeLabel;html=1;align=center;verticalAlign=middle;resizable=0;points=[];fontSize=12;" vertex="1" connectable="0" parent="7eBmMcVBxgbyp8dWVUL5-324">
          <mxGeometry x="-0.26" relative="1" as="geometry">
            <mxPoint as="offset" />
          </mxGeometry>
        </mxCell>
        <mxCell id="7eBmMcVBxgbyp8dWVUL5-326" value="" style="endArrow=blockThin;html=1;fontSize=12;exitX=1.013;exitY=0.497;exitDx=0;exitDy=0;exitPerimeter=0;endFill=1;" edge="1" parent="1">
          <mxGeometry width="50" height="50" relative="1" as="geometry">
            <mxPoint x="555.9989999999998" y="776.9430000000002" as="sourcePoint" />
            <mxPoint x="669" y="777" as="targetPoint" />
          </mxGeometry>
        </mxCell>
        <mxCell id="7eBmMcVBxgbyp8dWVUL5-327" value="compare" style="edgeLabel;html=1;align=center;verticalAlign=middle;resizable=0;points=[];fontSize=12;" vertex="1" connectable="0" parent="7eBmMcVBxgbyp8dWVUL5-326">
          <mxGeometry x="-0.0794" relative="1" as="geometry">
            <mxPoint x="-10" as="offset" />
          </mxGeometry>
        </mxCell>
        <mxCell id="7eBmMcVBxgbyp8dWVUL5-328" value="lmon_q.pop_front" style="text;html=1;align=center;verticalAlign=middle;resizable=0;points=[];autosize=1;fontSize=12;" vertex="1" parent="1">
          <mxGeometry x="668" y="767" width="104" height="19" as="geometry" />
        </mxCell>
        <mxCell id="7eBmMcVBxgbyp8dWVUL5-329" value="" style="shape=curlyBracket;whiteSpace=wrap;html=1;rounded=1;shadow=0;glass=0;sketch=0;strokeColor=#000000;strokeWidth=1;fillColor=none;fontSize=12;align=center;size=0.5;direction=west;" vertex="1" parent="1">
          <mxGeometry x="772" y="724" width="6" height="64" as="geometry" />
        </mxCell>
        <mxCell id="7eBmMcVBxgbyp8dWVUL5-330" value="" style="curved=1;endArrow=classic;html=1;fontSize=12;" edge="1" parent="1">
          <mxGeometry width="50" height="50" relative="1" as="geometry">
            <mxPoint x="783" y="755.9999999999995" as="sourcePoint" />
            <mxPoint x="581" y="654" as="targetPoint" />
            <Array as="points">
              <mxPoint x="802" y="746" />
              <mxPoint x="804" y="670" />
              <mxPoint x="774" y="616" />
              <mxPoint x="701" y="596" />
              <mxPoint x="610" y="618" />
            </Array>
          </mxGeometry>
        </mxCell>
        <mxCell id="7eBmMcVBxgbyp8dWVUL5-331" value="恢复D的顺序" style="text;html=1;align=center;verticalAlign=middle;resizable=0;points=[];autosize=1;" vertex="1" parent="1">
          <mxGeometry x="182" y="333" width="80" height="19" as="geometry" />
        </mxCell>
        <mxCell id="7eBmMcVBxgbyp8dWVUL5-332" value="组合D，恢复transaction" style="text;html=1;align=center;verticalAlign=middle;resizable=0;points=[];autosize=1;" vertex="1" parent="1">
          <mxGeometry x="168.5" y="447.75" width="138" height="19" as="geometry" />
        </mxCell>
        <mxCell id="7eBmMcVBxgbyp8dWVUL5-333" value="" style="shape=curlyBracket;whiteSpace=wrap;html=1;rounded=1;" vertex="1" parent="1">
          <mxGeometry x="308" y="400" width="20" height="114" as="geometry" />
        </mxCell>
        <mxCell id="7eBmMcVBxgbyp8dWVUL5-334" value="casen_vseq" style="rounded=1;whiteSpace=wrap;html=1;shadow=0;glass=0;sketch=0;strokeColor=#000000;fontSize=20;align=center;verticalAlign=top;dashed=1;dashPattern=1 4;strokeWidth=1;perimeterSpacing=0;" vertex="1" parent="1">
          <mxGeometry x="-1599" y="1146" width="470" height="170" as="geometry" />
        </mxCell>
        <mxCell id="7eBmMcVBxgbyp8dWVUL5-335" value="&lt;font style=&quot;font-size: 20px&quot;&gt;rx_i_agt&lt;/font&gt;" style="rounded=0;whiteSpace=wrap;html=1;align=center;verticalAlign=top;horizontal=1;labelPosition=center;verticalLabelPosition=middle;fillColor=#b1ddf0;" vertex="1" parent="1">
          <mxGeometry x="-1219" y="1476" width="110" height="160" as="geometry" />
        </mxCell>
        <mxCell id="7eBmMcVBxgbyp8dWVUL5-336" value="" style="group" vertex="1" connectable="0" parent="1">
          <mxGeometry x="-1199" y="1586" width="45" height="30" as="geometry" />
        </mxCell>
        <mxCell id="7eBmMcVBxgbyp8dWVUL5-337" value="drv" style="rounded=0;whiteSpace=wrap;html=1;strokeColor=#000000;fillColor=#FFFFFF;fontSize=20;" vertex="1" parent="7eBmMcVBxgbyp8dWVUL5-336">
          <mxGeometry width="40" height="30" as="geometry" />
        </mxCell>
        <mxCell id="7eBmMcVBxgbyp8dWVUL5-338" value="" style="rounded=0;whiteSpace=wrap;html=1;shadow=0;glass=0;sketch=0;strokeColor=#000000;align=center;" vertex="1" parent="7eBmMcVBxgbyp8dWVUL5-336">
          <mxGeometry x="40" y="13.5" width="5" height="5" as="geometry" />
        </mxCell>
        <mxCell id="7eBmMcVBxgbyp8dWVUL5-339" value="" style="group" vertex="1" connectable="0" parent="1">
          <mxGeometry x="-1199" y="1516" width="40" height="34" as="geometry" />
        </mxCell>
        <mxCell id="7eBmMcVBxgbyp8dWVUL5-340" value="sqr" style="rounded=0;whiteSpace=wrap;html=1;strokeColor=#36393d;fillColor=#ffff88;fontSize=20;" vertex="1" parent="7eBmMcVBxgbyp8dWVUL5-339">
          <mxGeometry width="40" height="30" as="geometry" />
        </mxCell>
        <mxCell id="7eBmMcVBxgbyp8dWVUL5-341" value="" style="ellipse;whiteSpace=wrap;html=1;aspect=fixed;rounded=0;shadow=0;glass=0;sketch=0;strokeColor=#000000;align=center;" vertex="1" parent="7eBmMcVBxgbyp8dWVUL5-339">
          <mxGeometry x="18" y="30" width="4" height="4" as="geometry" />
        </mxCell>
        <mxCell id="7eBmMcVBxgbyp8dWVUL5-342" value="" style="endArrow=blockThin;html=1;endFill=1;entryX=0.5;entryY=0;entryDx=0;entryDy=0;exitX=0.5;exitY=1;exitDx=0;exitDy=0;" edge="1" parent="1" source="7eBmMcVBxgbyp8dWVUL5-341">
          <mxGeometry width="50" height="50" relative="1" as="geometry">
            <mxPoint x="476" y="1016" as="sourcePoint" />
            <mxPoint x="-1179" y="1580.5" as="targetPoint" />
          </mxGeometry>
        </mxCell>
        <mxCell id="7eBmMcVBxgbyp8dWVUL5-343" value="&lt;font style=&quot;font-size: 20px&quot;&gt;v_sqr&lt;/font&gt;" style="rounded=0;whiteSpace=wrap;html=1;align=center;verticalAlign=top;horizontal=1;labelPosition=center;verticalLabelPosition=middle;fillColor=#b1ddf0;" vertex="1" parent="1">
          <mxGeometry x="-1439" y="1476" width="200" height="100" as="geometry" />
        </mxCell>
        <mxCell id="7eBmMcVBxgbyp8dWVUL5-344" value="rx_sqr" style="rounded=0;whiteSpace=wrap;html=1;fontSize=20;" vertex="1" parent="1">
          <mxGeometry x="-1321.5" y="1516" width="72.5" height="30" as="geometry" />
        </mxCell>
        <mxCell id="7eBmMcVBxgbyp8dWVUL5-345" value="apb_sqr" style="rounded=0;whiteSpace=wrap;html=1;fontSize=20;" vertex="1" parent="1">
          <mxGeometry x="-1419" y="1516" width="80" height="30.5" as="geometry" />
        </mxCell>
        <mxCell id="7eBmMcVBxgbyp8dWVUL5-346" value="" style="endArrow=classic;startArrow=none;html=1;startFill=0;dashed=1;exitX=1;exitY=0.5;exitDx=0;exitDy=0;" edge="1" parent="1" source="7eBmMcVBxgbyp8dWVUL5-344" target="7eBmMcVBxgbyp8dWVUL5-340">
          <mxGeometry width="50" height="50" relative="1" as="geometry">
            <mxPoint x="-256.5" y="1395.5" as="sourcePoint" />
            <mxPoint x="391" y="756" as="targetPoint" />
          </mxGeometry>
        </mxCell>
        <mxCell id="7eBmMcVBxgbyp8dWVUL5-347" value="" style="group" vertex="1" connectable="0" parent="1">
          <mxGeometry x="-1349" y="1261" width="205" height="40.75000000000003" as="geometry" />
        </mxCell>
        <mxCell id="7eBmMcVBxgbyp8dWVUL5-348" value="casen_seq" style="rounded=1;whiteSpace=wrap;html=1;shadow=0;glass=0;sketch=0;strokeColor=#000000;fontSize=20;align=center;fillColor=#FFFFFF;dashed=1;dashPattern=1 4;strokeWidth=1;perimeterSpacing=0;" vertex="1" parent="7eBmMcVBxgbyp8dWVUL5-347">
          <mxGeometry x="80" y="4.230000000000018" width="125" height="36.52" as="geometry" />
        </mxCell>
        <mxCell id="7eBmMcVBxgbyp8dWVUL5-349" value="&lt;font style=&quot;font-size: 12px&quot;&gt;rx_transaction&lt;/font&gt;" style="rounded=1;whiteSpace=wrap;html=1;shadow=0;glass=0;sketch=0;strokeWidth=1;fillColor=#a0522d;fontSize=12;align=center;fontColor=#ffffff;" vertex="1" parent="7eBmMcVBxgbyp8dWVUL5-347">
          <mxGeometry x="9" width="86" height="21" as="geometry" />
        </mxCell>
        <mxCell id="7eBmMcVBxgbyp8dWVUL5-350" value="" style="group" vertex="1" connectable="0" parent="1">
          <mxGeometry x="-1579" y="1257.5" width="200" height="41.76000000000002" as="geometry" />
        </mxCell>
        <mxCell id="7eBmMcVBxgbyp8dWVUL5-351" value="rx_apb_seq" style="rounded=1;whiteSpace=wrap;html=1;shadow=0;glass=0;sketch=0;strokeColor=#000000;fontSize=20;align=center;fillColor=#FFFFFF;dashed=1;dashPattern=1 4;" vertex="1" parent="7eBmMcVBxgbyp8dWVUL5-350">
          <mxGeometry x="70" y="5.240000000000009" width="130" height="36.52" as="geometry" />
        </mxCell>
        <mxCell id="7eBmMcVBxgbyp8dWVUL5-352" value="&lt;font style=&quot;font-size: 12px&quot;&gt;apb_transaction&lt;/font&gt;" style="rounded=1;whiteSpace=wrap;html=1;shadow=0;glass=0;sketch=0;strokeWidth=1;fillColor=#a0522d;fontSize=12;align=center;fontColor=#ffffff;" vertex="1" parent="7eBmMcVBxgbyp8dWVUL5-350">
          <mxGeometry x="-7" width="89" height="21" as="geometry" />
        </mxCell>
        <mxCell id="7eBmMcVBxgbyp8dWVUL5-353" value="" style="endArrow=blockThin;html=1;fontSize=20;endFill=1;exitX=0.468;exitY=0.986;exitDx=0;exitDy=0;entryX=0.5;entryY=0;entryDx=0;entryDy=0;dashed=1;exitPerimeter=0;fillColor=#dae8fc;strokeColor=#6c8ebf;" edge="1" parent="1" source="7eBmMcVBxgbyp8dWVUL5-348" target="7eBmMcVBxgbyp8dWVUL5-344">
          <mxGeometry width="50" height="50" relative="1" as="geometry">
            <mxPoint x="-109" y="1140.5" as="sourcePoint" />
            <mxPoint x="128.5" y="1135" as="targetPoint" />
          </mxGeometry>
        </mxCell>
        <mxCell id="7eBmMcVBxgbyp8dWVUL5-354" value="" style="endArrow=blockThin;html=1;fontSize=20;endFill=1;exitX=0.5;exitY=1;exitDx=0;exitDy=0;rounded=1;dashed=1;" edge="1" parent="1" source="7eBmMcVBxgbyp8dWVUL5-351" target="7eBmMcVBxgbyp8dWVUL5-345">
          <mxGeometry width="50" height="50" relative="1" as="geometry">
            <mxPoint x="-159" y="971" as="sourcePoint" />
            <mxPoint x="-109" y="921" as="targetPoint" />
          </mxGeometry>
        </mxCell>
        <mxCell id="7eBmMcVBxgbyp8dWVUL5-355" value="rx_sequence" style="rounded=1;whiteSpace=wrap;html=1;shadow=0;glass=0;sketch=0;strokeColor=#b85450;fontSize=20;align=center;dashed=1;dashPattern=1 4;strokeWidth=1;perimeterSpacing=0;fillColor=#B85450;" vertex="1" parent="1">
          <mxGeometry x="-1269" y="1167" width="125" height="36.52" as="geometry" />
        </mxCell>
        <mxCell id="7eBmMcVBxgbyp8dWVUL5-356" value="" style="endArrow=classic;html=1;exitX=0.5;exitY=1;exitDx=0;exitDy=0;entryX=0.5;entryY=0;entryDx=0;entryDy=0;" edge="1" parent="1" source="7eBmMcVBxgbyp8dWVUL5-355" target="7eBmMcVBxgbyp8dWVUL5-348">
          <mxGeometry relative="1" as="geometry">
            <mxPoint x="-1090" y="1241" as="sourcePoint" />
            <mxPoint x="-990" y="1241" as="targetPoint" />
          </mxGeometry>
        </mxCell>
        <mxCell id="7eBmMcVBxgbyp8dWVUL5-357" value="extends" style="edgeLabel;resizable=0;html=1;align=center;verticalAlign=middle;" connectable="0" vertex="1" parent="7eBmMcVBxgbyp8dWVUL5-356">
          <mxGeometry relative="1" as="geometry" />
        </mxCell>
        <mxCell id="7eBmMcVBxgbyp8dWVUL5-358" value="" style="curved=1;endArrow=classic;html=1;exitX=0.5;exitY=1;exitDx=0;exitDy=0;entryX=0.5;entryY=0;entryDx=0;entryDy=0;fillColor=#f8cecc;strokeColor=#b85450;" edge="1" parent="1" source="7eBmMcVBxgbyp8dWVUL5-355" target="7eBmMcVBxgbyp8dWVUL5-344">
          <mxGeometry width="50" height="50" relative="1" as="geometry">
            <mxPoint x="-887" y="1340" as="sourcePoint" />
            <mxPoint x="-837" y="1290" as="targetPoint" />
            <Array as="points">
              <mxPoint x="-948" y="1257" />
              <mxPoint x="-1003" y="1427" />
            </Array>
          </mxGeometry>
        </mxCell>
        <mxCell id="7eBmMcVBxgbyp8dWVUL5-359" value="temp_tdata_q[ ]" style="text;html=1;align=center;verticalAlign=middle;resizable=0;points=[];autosize=1;fontSize=12;" vertex="1" parent="1">
          <mxGeometry x="-446" y="1217.75" width="95" height="20" as="geometry" />
        </mxCell>
        <mxCell id="7eBmMcVBxgbyp8dWVUL5-360" value="0" style="rounded=0;whiteSpace=wrap;html=1;shadow=0;glass=0;sketch=0;strokeColor=#000000;strokeWidth=1;fillColor=#FFFFFF;fontSize=12;align=center;" vertex="1" parent="1">
          <mxGeometry x="-350" y="1217.75" width="20" height="20" as="geometry" />
        </mxCell>
        <mxCell id="7eBmMcVBxgbyp8dWVUL5-361" value="1" style="rounded=0;whiteSpace=wrap;html=1;shadow=0;glass=0;sketch=0;strokeColor=#000000;strokeWidth=1;fillColor=#FFFFFF;fontSize=12;align=center;" vertex="1" parent="1">
          <mxGeometry x="-330" y="1217.75" width="20" height="20" as="geometry" />
        </mxCell>
        <mxCell id="7eBmMcVBxgbyp8dWVUL5-362" value="....." style="rounded=0;whiteSpace=wrap;html=1;shadow=0;glass=0;sketch=0;strokeColor=#000000;strokeWidth=1;fillColor=#FFFFFF;fontSize=12;align=center;verticalAlign=middle;labelPosition=center;verticalLabelPosition=middle;" vertex="1" parent="1">
          <mxGeometry x="-310" y="1217.75" width="50" height="20" as="geometry" />
        </mxCell>
        <mxCell id="7eBmMcVBxgbyp8dWVUL5-363" value="7" style="rounded=0;whiteSpace=wrap;html=1;shadow=0;glass=0;sketch=0;strokeColor=#000000;strokeWidth=1;fillColor=#FFFFFF;fontSize=12;align=center;" vertex="1" parent="1">
          <mxGeometry x="-260" y="1217.75" width="20" height="20" as="geometry" />
        </mxCell>
        <mxCell id="7eBmMcVBxgbyp8dWVUL5-364" value="8" style="rounded=0;whiteSpace=wrap;html=1;shadow=0;glass=0;sketch=0;strokeColor=#000000;strokeWidth=1;fillColor=#FFFFFF;fontSize=12;align=center;" vertex="1" parent="1">
          <mxGeometry x="-240" y="1217.75" width="20" height="20" as="geometry" />
        </mxCell>
        <mxCell id="7eBmMcVBxgbyp8dWVUL5-365" value="....." style="rounded=0;whiteSpace=wrap;html=1;shadow=0;glass=0;sketch=0;strokeColor=#000000;strokeWidth=1;fillColor=#FFFFFF;fontSize=12;align=center;verticalAlign=middle;labelPosition=center;verticalLabelPosition=middle;" vertex="1" parent="1">
          <mxGeometry x="-220" y="1217.75" width="50" height="20" as="geometry" />
        </mxCell>
        <mxCell id="7eBmMcVBxgbyp8dWVUL5-366" value="" style="endArrow=none;html=1;fontSize=12;" edge="1" parent="1">
          <mxGeometry width="50" height="50" relative="1" as="geometry">
            <mxPoint x="-24.99999999999909" y="1282.7500000000005" as="sourcePoint" />
            <mxPoint x="-395" y="1282.7500000000005" as="targetPoint" />
          </mxGeometry>
        </mxCell>
        <mxCell id="7eBmMcVBxgbyp8dWVUL5-367" value="" style="endArrow=none;html=1;fontSize=12;entryX=0;entryY=1;entryDx=0;entryDy=0;" edge="1" parent="1">
          <mxGeometry width="50" height="50" relative="1" as="geometry">
            <mxPoint x="-239.9999999999991" y="1257.7500000000005" as="sourcePoint" />
            <mxPoint x="-239.9999999999991" y="1238.1300000000006" as="targetPoint" />
          </mxGeometry>
        </mxCell>
        <mxCell id="7eBmMcVBxgbyp8dWVUL5-368" value="" style="endArrow=none;html=1;fontSize=12;entryX=0;entryY=1;entryDx=0;entryDy=0;" edge="1" parent="1">
          <mxGeometry width="50" height="50" relative="1" as="geometry">
            <mxPoint x="-350" y="1257.7500000000005" as="sourcePoint" />
            <mxPoint x="-350" y="1237.5" as="targetPoint" />
          </mxGeometry>
        </mxCell>
        <mxCell id="7eBmMcVBxgbyp8dWVUL5-369" value="" style="endArrow=classic;startArrow=classic;html=1;fontSize=12;" edge="1" parent="1">
          <mxGeometry width="50" height="50" relative="1" as="geometry">
            <mxPoint x="-350" y="1252.7500000000005" as="sourcePoint" />
            <mxPoint x="-239.9999999999991" y="1252.7500000000005" as="targetPoint" />
          </mxGeometry>
        </mxCell>
        <mxCell id="7eBmMcVBxgbyp8dWVUL5-370" value="D0" style="edgeLabel;html=1;align=center;verticalAlign=middle;resizable=0;points=[];fontSize=12;" vertex="1" connectable="0" parent="7eBmMcVBxgbyp8dWVUL5-369">
          <mxGeometry x="-0.0798" relative="1" as="geometry">
            <mxPoint as="offset" />
          </mxGeometry>
        </mxCell>
        <mxCell id="7eBmMcVBxgbyp8dWVUL5-371" value="8n-1" style="rounded=0;whiteSpace=wrap;html=1;shadow=0;glass=0;sketch=0;strokeColor=#000000;strokeWidth=1;fillColor=#FFFFFF;fontSize=12;align=center;" vertex="1" parent="1">
          <mxGeometry x="-170" y="1217.75" width="30" height="20" as="geometry" />
        </mxCell>
        <mxCell id="7eBmMcVBxgbyp8dWVUL5-372" value="8n" style="rounded=0;whiteSpace=wrap;html=1;shadow=0;glass=0;sketch=0;strokeColor=#000000;strokeWidth=1;fillColor=#FFFFFF;fontSize=12;align=center;" vertex="1" parent="1">
          <mxGeometry x="-140" y="1217.75" width="20" height="20" as="geometry" />
        </mxCell>
        <mxCell id="7eBmMcVBxgbyp8dWVUL5-373" value="....." style="rounded=0;whiteSpace=wrap;html=1;shadow=0;glass=0;sketch=0;strokeColor=#000000;strokeWidth=1;fillColor=#FFFFFF;fontSize=12;align=center;verticalAlign=middle;labelPosition=center;verticalLabelPosition=middle;" vertex="1" parent="1">
          <mxGeometry x="-120" y="1217.75" width="50" height="20" as="geometry" />
        </mxCell>
        <mxCell id="7eBmMcVBxgbyp8dWVUL5-374" value="" style="endArrow=none;html=1;fontSize=12;entryX=0;entryY=1;entryDx=0;entryDy=0;" edge="1" parent="1">
          <mxGeometry width="50" height="50" relative="1" as="geometry">
            <mxPoint x="-139.9999999999991" y="1257.3700000000003" as="sourcePoint" />
            <mxPoint x="-139.9999999999991" y="1237.7500000000005" as="targetPoint" />
          </mxGeometry>
        </mxCell>
        <mxCell id="7eBmMcVBxgbyp8dWVUL5-375" value="D1" style="text;html=1;align=center;verticalAlign=middle;resizable=0;points=[];autosize=1;fontSize=12;" vertex="1" parent="1">
          <mxGeometry x="-240" y="1241.75" width="30" height="20" as="geometry" />
        </mxCell>
        <mxCell id="7eBmMcVBxgbyp8dWVUL5-376" value="...." style="text;html=1;align=center;verticalAlign=middle;resizable=0;points=[];autosize=1;fontSize=12;" vertex="1" parent="1">
          <mxGeometry x="-207" y="1242.75" width="25" height="20" as="geometry" />
        </mxCell>
        <mxCell id="7eBmMcVBxgbyp8dWVUL5-377" value="Dn-1" style="text;html=1;align=center;verticalAlign=middle;resizable=0;points=[];autosize=1;fontSize=12;" vertex="1" parent="1">
          <mxGeometry x="-175" y="1241.75" width="40" height="20" as="geometry" />
        </mxCell>
        <mxCell id="7eBmMcVBxgbyp8dWVUL5-378" value="" style="endArrow=classic;startArrow=classic;html=1;fontSize=12;" edge="1" parent="1">
          <mxGeometry width="50" height="50" relative="1" as="geometry">
            <mxPoint x="-139.9999999999991" y="1252.7500000000005" as="sourcePoint" />
            <mxPoint x="-69.99999999999909" y="1252.7500000000005" as="targetPoint" />
          </mxGeometry>
        </mxCell>
        <mxCell id="7eBmMcVBxgbyp8dWVUL5-379" value="Dn" style="edgeLabel;html=1;align=center;verticalAlign=middle;resizable=0;points=[];fontSize=12;" vertex="1" connectable="0" parent="7eBmMcVBxgbyp8dWVUL5-378">
          <mxGeometry x="-0.0798" relative="1" as="geometry">
            <mxPoint as="offset" />
          </mxGeometry>
        </mxCell>
        <mxCell id="7eBmMcVBxgbyp8dWVUL5-380" value="" style="endArrow=none;html=1;fontSize=12;entryX=0;entryY=1;entryDx=0;entryDy=0;" edge="1" parent="1">
          <mxGeometry width="50" height="50" relative="1" as="geometry">
            <mxPoint x="-69.99999999999909" y="1257.3700000000003" as="sourcePoint" />
            <mxPoint x="-69.99999999999909" y="1237.7500000000005" as="targetPoint" />
          </mxGeometry>
        </mxCell>
        <mxCell id="7eBmMcVBxgbyp8dWVUL5-381" value="&lt;font style=&quot;font-size: 20px&quot;&gt;DUT&lt;/font&gt;" style="rounded=0;whiteSpace=wrap;html=1;shadow=0;glass=0;sketch=0;verticalAlign=middle;align=center;dashed=1;fontColor=#ffffff;fillColor=#e0a4a2;dashPattern=1 4;" vertex="1" parent="1">
          <mxGeometry x="-25" y="1261.75" width="125" height="40" as="geometry" />
        </mxCell>
        <mxCell id="7eBmMcVBxgbyp8dWVUL5-382" value="" style="endArrow=block;html=1;fontSize=12;shape=flexArrow;startArrow=none;startFill=0;endFill=0;endSize=2.4232558139534883;startSize=6;rounded=1;endWidth=3.37479718766901;width=3.7209302325581395;" edge="1" parent="1">
          <mxGeometry width="50" height="50" relative="1" as="geometry">
            <mxPoint x="-300" y="1257.7500000000005" as="sourcePoint" />
            <mxPoint x="-299.9200000000001" y="1282.7500000000005" as="targetPoint" />
          </mxGeometry>
        </mxCell>
        <mxCell id="7eBmMcVBxgbyp8dWVUL5-383" value="" style="endArrow=block;html=1;fontSize=12;shape=flexArrow;startArrow=none;startFill=0;endFill=0;endSize=2.4232558139534883;startSize=6;rounded=1;endWidth=3.37479718766901;width=3.7209302325581395;" edge="1" parent="1">
          <mxGeometry width="50" height="50" relative="1" as="geometry">
            <mxPoint x="-225.17000000000007" y="1256.75" as="sourcePoint" />
            <mxPoint x="-225.08999999999924" y="1281.75" as="targetPoint" />
          </mxGeometry>
        </mxCell>
        <mxCell id="7eBmMcVBxgbyp8dWVUL5-384" value="" style="endArrow=block;html=1;fontSize=12;shape=flexArrow;startArrow=none;startFill=0;endFill=0;endSize=2.4232558139534883;startSize=6;rounded=1;endWidth=3.37479718766901;width=3.7209302325581395;" edge="1" parent="1">
          <mxGeometry width="50" height="50" relative="1" as="geometry">
            <mxPoint x="-149.9999999999991" y="1256.75" as="sourcePoint" />
            <mxPoint x="-149.92000000000007" y="1281.75" as="targetPoint" />
          </mxGeometry>
        </mxCell>
        <mxCell id="7eBmMcVBxgbyp8dWVUL5-385" value="" style="endArrow=block;html=1;fontSize=12;shape=flexArrow;startArrow=none;startFill=0;endFill=0;endSize=2.4232558139534883;startSize=6;rounded=1;endWidth=3.37479718766901;width=3.7209302325581395;" edge="1" parent="1">
          <mxGeometry width="50" height="50" relative="1" as="geometry">
            <mxPoint x="-104.99999999999909" y="1256.75" as="sourcePoint" />
            <mxPoint x="-104.92000000000007" y="1281.75" as="targetPoint" />
          </mxGeometry>
        </mxCell>
        <mxCell id="7eBmMcVBxgbyp8dWVUL5-386" value="@clk" style="text;html=1;align=center;verticalAlign=middle;resizable=0;points=[];autosize=1;fontSize=12;" vertex="1" parent="1">
          <mxGeometry x="-315" y="1281.75" width="40" height="20" as="geometry" />
        </mxCell>
        <mxCell id="7eBmMcVBxgbyp8dWVUL5-387" value="@clk" style="text;html=1;align=center;verticalAlign=middle;resizable=0;points=[];autosize=1;fontSize=12;" vertex="1" parent="1">
          <mxGeometry x="-245" y="1281.75" width="40" height="20" as="geometry" />
        </mxCell>
        <mxCell id="7eBmMcVBxgbyp8dWVUL5-388" value="@clk" style="text;html=1;align=center;verticalAlign=middle;resizable=0;points=[];autosize=1;fontSize=12;" vertex="1" parent="1">
          <mxGeometry x="-170" y="1281.75" width="40" height="20" as="geometry" />
        </mxCell>
        <mxCell id="7eBmMcVBxgbyp8dWVUL5-389" value="@clk" style="text;html=1;align=center;verticalAlign=middle;resizable=0;points=[];autosize=1;fontSize=12;" vertex="1" parent="1">
          <mxGeometry x="-120" y="1281.75" width="40" height="20" as="geometry" />
        </mxCell>
        <mxCell id="7eBmMcVBxgbyp8dWVUL5-390" value="" style="endArrow=none;html=1;fontSize=12;" edge="1" parent="1">
          <mxGeometry width="50" height="50" relative="1" as="geometry">
            <mxPoint x="-139.9999999999991" y="1217.7500000000005" as="sourcePoint" />
            <mxPoint x="-139.9999999999991" y="1191.75" as="targetPoint" />
          </mxGeometry>
        </mxCell>
        <mxCell id="7eBmMcVBxgbyp8dWVUL5-391" value="" style="endArrow=none;html=1;fontSize=12;" edge="1" parent="1">
          <mxGeometry width="50" height="50" relative="1" as="geometry">
            <mxPoint x="-69.99999999999909" y="1217.7500000000005" as="sourcePoint" />
            <mxPoint x="-69.99999999999909" y="1191.75" as="targetPoint" />
          </mxGeometry>
        </mxCell>
        <mxCell id="7eBmMcVBxgbyp8dWVUL5-392" value="1-8byte" style="text;html=1;align=center;verticalAlign=middle;resizable=0;points=[];autosize=1;fontSize=12;" vertex="1" parent="1">
          <mxGeometry x="-135" y="1192.75" width="55" height="20" as="geometry" />
        </mxCell>
        <mxCell id="7eBmMcVBxgbyp8dWVUL5-393" value="" style="endArrow=classic;html=1;fontSize=12;" edge="1" parent="1">
          <mxGeometry width="50" height="50" relative="1" as="geometry">
            <mxPoint x="-359" y="1299.7499999999995" as="sourcePoint" />
            <mxPoint x="-54" y="1299.7499999999995" as="targetPoint" />
          </mxGeometry>
        </mxCell>
        <mxCell id="7eBmMcVBxgbyp8dWVUL5-394" value="" style="endArrow=classic;html=1;fontColor=#B85450;fillColor=#f8cecc;strokeColor=#b85450;entryX=0.06;entryY=-0.014;entryDx=0;entryDy=0;entryPerimeter=0;" edge="1" parent="1" target="7eBmMcVBxgbyp8dWVUL5-372">
          <mxGeometry width="50" height="50" relative="1" as="geometry">
            <mxPoint x="-131" y="1145.9999999999995" as="sourcePoint" />
            <mxPoint x="-131" y="1190" as="targetPoint" />
          </mxGeometry>
        </mxCell>
        <mxCell id="7eBmMcVBxgbyp8dWVUL5-395" value="高位填充0" style="edgeLabel;html=1;align=center;verticalAlign=middle;resizable=0;points=[];fontColor=#B85450;" vertex="1" connectable="0" parent="7eBmMcVBxgbyp8dWVUL5-394">
          <mxGeometry x="-0.154" relative="1" as="geometry">
            <mxPoint as="offset" />
          </mxGeometry>
        </mxCell>
        <mxCell id="7eBmMcVBxgbyp8dWVUL5-396" value="pkgn" style="rounded=0;whiteSpace=wrap;html=1;shadow=0;glass=0;sketch=0;strokeColor=#000000;strokeWidth=1;fillColor=#FFFFFF;fontSize=12;align=center;" vertex="1" parent="1">
          <mxGeometry x="126.61000000000001" y="1153.5" width="40" height="29" as="geometry" />
        </mxCell>
        <mxCell id="7eBmMcVBxgbyp8dWVUL5-397" value="pkgn" style="rounded=0;whiteSpace=wrap;html=1;shadow=0;glass=0;sketch=0;strokeColor=#000000;strokeWidth=1;fillColor=#FFFFFF;fontSize=12;align=center;" vertex="1" parent="1">
          <mxGeometry x="166.61" y="1153.5" width="40" height="29" as="geometry" />
        </mxCell>
        <mxCell id="7eBmMcVBxgbyp8dWVUL5-398" value="......" style="rounded=0;whiteSpace=wrap;html=1;shadow=0;glass=0;sketch=0;strokeColor=#000000;strokeWidth=1;fillColor=#FFFFFF;fontSize=12;align=center;" vertex="1" parent="1">
          <mxGeometry x="206.61" y="1153.5" width="65" height="29" as="geometry" />
        </mxCell>
        <mxCell id="7eBmMcVBxgbyp8dWVUL5-399" value="pkgn" style="rounded=0;whiteSpace=wrap;html=1;shadow=0;glass=0;sketch=0;strokeColor=#000000;strokeWidth=1;fillColor=#FFFFFF;fontSize=12;align=center;" vertex="1" parent="1">
          <mxGeometry x="271.61" y="1153.5" width="40" height="29" as="geometry" />
        </mxCell>
        <mxCell id="7eBmMcVBxgbyp8dWVUL5-400" value="rmon_q" style="text;html=1;align=center;verticalAlign=middle;resizable=0;points=[];autosize=1;fontSize=12;" vertex="1" parent="1">
          <mxGeometry x="75.11000000000001" y="1158" width="55" height="20" as="geometry" />
        </mxCell>
        <mxCell id="7eBmMcVBxgbyp8dWVUL5-401" value="" style="endArrow=blockThin;html=1;fontSize=12;endFill=1;" edge="1" parent="1">
          <mxGeometry width="50" height="50" relative="1" as="geometry">
            <mxPoint x="336.6099999999997" y="1138.4999999999995" as="sourcePoint" />
            <mxPoint x="306.6099999999997" y="1168.4999999999995" as="targetPoint" />
            <Array as="points">
              <mxPoint x="331.61" y="1163.5" />
            </Array>
          </mxGeometry>
        </mxCell>
        <mxCell id="7eBmMcVBxgbyp8dWVUL5-402" value="push_back" style="text;html=1;align=center;verticalAlign=middle;resizable=0;points=[];autosize=1;fontSize=12;" vertex="1" parent="1">
          <mxGeometry x="302.61" y="1120" width="70" height="20" as="geometry" />
        </mxCell>
      </root>
    </mxGraphModel>
  </diagram>
</mxfile>
